<svg width="20" height="20" viewBox="0 0 20 20" fill="none" xmlns="http://www.w3.org/2000/svg">
<g id="Media / Icons / Arrows / Arrow-Up-Encircled">
<rect width="20" height="20" fill="#5C666C"/>
<g id="Icon">
<path d="M13.0303 8.96967L10.5303 6.46967C10.2374 6.17678 9.76256 6.17678 9.46967 6.46967L6.96967 8.96967C6.67678 9.26256 6.67678 9.73744 6.96967 10.0303C7.26256 10.3232 7.73744 10.3232 8.03033 10.0303L9.25 8.81066V13C9.25 13.4142 9.58579 13.75 10 13.75C10.4142 13.75 10.75 13.4142 10.75 13V8.81066L11.9697 10.0303C12.2626 10.3232 12.7374 10.3232 13.0303 10.0303C13.3232 9.73744 13.3232 9.26256 13.0303 8.96967Z" fill="#54C7EE"/>
<path fill-rule="evenodd" clipRule="evenodd" d="M18 10C18 14.4183 14.4183 18 10 18C5.58172 18 2 14.4183 2 10C2 5.58172 5.58172 2 10 2C14.4183 2 18 5.58172 18 10ZM16.5 10C16.5 13.5899 13.5899 16.5 10 16.5C6.41015 16.5 3.5 13.5899 3.5 10C3.5 6.41015 6.41015 3.5 10 3.5C13.5899 3.5 16.5 6.41015 16.5 10Z" fill="#54C7EE"/>
</g>
</g>
</svg>
