<svg width="78" height="64" viewBox="0 0 78 64" fill="none" xmlns="http://www.w3.org/2000/svg">
<path d="M11.9465 19.1251C5.67791 18.9949 0.671108 16.379 0.526635 13.0073C0.37253 9.41383 5.80794 6.31508 12.6584 6.09324C19.5088 5.8707 25.1939 8.60625 25.348 12.2005C25.5021 15.7961 20.0667 18.8941 13.2162 19.1174C12.7876 19.1307 12.3638 19.1342 11.9465 19.1251ZM12.2539 16.3132C12.542 16.3188 12.835 16.3174 13.1303 16.3076C17.8602 16.153 21.6117 14.013 21.5082 11.5314C21.3998 9.04993 17.4774 7.15974 12.7451 7.3158C8.01517 7.46906 4.26207 9.60838 4.36802 12.0899C4.46674 14.4175 7.92367 16.2244 12.2539 16.3132Z" fill="#767F84"/>
<path d="M14.7034 14.9848C9.31539 17.784 3.48027 17.8932 1.30193 15.1066C-1.02248 12.1359 1.68639 6.9909 7.34975 3.62202C13.0123 0.253838 19.4959 -0.0666738 21.8196 2.90471C24.1448 5.8761 21.4351 11.0211 15.7725 14.3886C15.4194 14.5992 15.063 14.7987 14.7034 14.9848ZM13.2459 12.4627C13.4947 12.3332 13.7403 12.1975 13.9843 12.0519C17.8947 9.72435 19.7656 6.17422 18.1588 4.12098C16.5559 2.06984 12.0796 2.29168 8.16843 4.61715C4.25962 6.94331 2.38789 10.4955 3.99235 12.5481C5.49808 14.4712 9.52648 14.3956 13.2459 12.4627Z" fill="#767F84"/>
<path d="M37.0177 18.164H28.562V1.80103H37.8035C38.9962 1.80103 40.0043 1.97458 40.827 2.32028C41.6489 2.66669 42.2733 3.13766 42.7003 3.7346C43.1273 4.33153 43.3753 5.00685 43.4428 5.76264C43.4428 7.67032 42.6875 8.86839 41.1745 9.35756C42.1385 9.65778 42.8625 10.1819 43.344 10.9293C43.8272 11.6774 44.0672 12.534 44.0672 13.4962C43.9789 14.315 43.7614 15.0204 43.4163 15.6104C43.0728 16.201 42.6064 16.6832 42.0189 17.0576C41.4306 17.432 40.7186 17.7098 39.8839 17.891C39.0476 18.0737 38.0932 18.164 37.0177 18.164ZM32.3472 4.64575V8.19588H37.1269C37.9343 8.19588 38.562 8.03492 39.0106 7.71231C39.4585 7.3904 39.6824 6.95862 39.6824 6.41766C39.6824 5.83962 39.4866 5.40014 39.0965 5.09782C38.7064 4.79621 37.9712 4.64575 36.8917 4.64575H32.3472ZM32.3472 15.3633H37.338C38.1446 15.3633 38.8044 15.1884 39.3164 14.8385C39.8285 14.4886 40.1078 13.9203 40.1544 13.1351C40.1544 12.3338 39.8751 11.7754 39.3164 11.4542C38.7578 11.1344 38.1157 10.9734 37.3893 10.9734H32.348L32.3472 15.3633ZM45.3546 18.164V1.80103H49.0387V18.164H45.3546ZM51.0011 4.60166V1.61768H54.6844V4.60166H51.0011ZM51.0011 18.164V6.03417H54.6844V18.164H51.0011ZM57.8532 15.6859V8.33514H55.9734V6.03417H57.8532V2.77936H61.5364V6.03487H63.787V8.33584H61.5364V14.9126C61.5364 15.3164 61.6095 15.581 61.7564 15.7048C61.9024 15.8294 62.3174 15.891 63.0012 15.891C63.0952 15.891 63.2372 15.884 63.4282 15.8693C63.6193 15.8546 63.7381 15.8469 63.7854 15.8469V18.2528C63.6056 18.2528 63.3247 18.2612 62.9386 18.2773C62.5542 18.2934 62.2684 18.3032 62.0814 18.3032H61.5902C60.5436 18.3032 59.7498 18.1968 59.2072 17.9834C58.6638 17.77 58.3035 17.4781 58.1213 17.1086C57.9439 16.7384 57.8532 16.264 57.8532 15.6859ZM65.0383 15.6859L72.1633 8.60667H65.255V6.03417H76.8097V8.65145L69.7618 15.5474H77.0457V18.164H65.0383V15.6859Z" fill="#767F84"/>
<path d="M9.31453 33.9095V32.0664H17.433V40.6784H15.8356L15.2106 38.6086C14.7971 39.1174 14.2747 39.5619 13.641 39.9435C13.0072 40.3238 12.3027 40.6169 11.5314 40.8222C10.7585 41.0276 9.95144 41.1299 9.10938 41.1299C7.55167 41.1299 6.21184 40.9114 5.09306 40.4766C3.97269 40.0403 3.07496 39.434 2.39828 38.6535C1.7224 37.8744 1.23179 36.9632 0.927244 35.9179C0.621905 34.8726 0.469238 33.7243 0.469238 32.4736C0.469238 31.0979 0.796842 29.7705 1.45125 28.4915C2.10646 27.2126 3.09563 26.1666 4.42195 25.3515C5.74826 24.5371 7.36084 24.1299 9.25966 24.1299C10.4691 24.1299 11.6451 24.3297 12.7933 24.7279C13.9399 25.1268 14.91 25.7262 15.7012 26.5274C16.4932 27.3287 16.9671 28.298 17.1221 29.4352H14.7176C14.3471 28.168 13.6457 27.2893 12.6152 26.7978C11.5839 26.3069 10.4325 26.0622 9.16186 26.0622C8.31581 26.0622 7.52305 26.2053 6.78753 26.4901C6.05122 26.7763 5.39999 27.1987 4.83384 27.7587C4.26769 28.3187 3.82479 29.0121 3.50831 29.8376C3.19025 30.663 3.03043 31.5867 3.03043 32.6071C3.03043 34.6721 3.52104 36.267 4.50226 37.3946C5.01593 38.0251 5.68068 38.5083 6.50048 38.8478C7.31869 39.1865 8.20688 39.3704 9.16265 39.3995C10.6567 39.349 11.9489 38.9584 13.039 38.2311C13.8294 37.6898 14.3733 37.0752 14.6683 36.3894C14.9625 35.7029 15.1104 34.8767 15.1104 33.9116L9.31453 33.9095ZM18.9502 37.4782C19.009 36.8706 19.1784 36.359 19.4321 35.8861C19.6865 35.4139 20.1493 34.9991 20.8212 34.6403C21.4931 34.2815 22.4433 34.0236 23.6718 33.866C23.8412 33.8404 24.2483 33.8176 24.894 33.7941C25.5404 33.7727 26.074 33.7263 26.4978 33.6579C26.92 33.5874 27.2786 33.4484 27.5744 33.2383C27.8702 33.0281 28.0173 32.7122 28.0173 32.2911C28.0173 30.9776 26.9733 30.2876 24.886 30.222C22.9331 30.222 21.8915 30.9866 21.7611 32.5165H19.6396C19.6396 31.8321 19.8368 31.1912 20.2304 30.5925C20.6232 29.9938 21.2243 29.5133 22.033 29.149C22.8417 28.7854 23.8277 28.6028 24.9942 28.6028C25.9293 28.6028 26.7944 28.7072 27.5895 28.916C28.3847 29.1241 29.0256 29.4601 29.5114 29.9233C29.9965 30.3865 30.2406 30.9748 30.2406 31.6883V38.3853C30.2406 38.7365 30.2827 38.9798 30.3654 39.1153C30.4497 39.2501 30.6239 39.3448 30.8902 39.3518C31.2703 39.3614 31.5041 39.3151 31.7426 39.2411V40.6805C31.4731 40.8305 30.9721 40.9059 30.2398 40.9059C28.9143 40.9059 28.2058 40.3196 28.1191 39.1492C26.8509 40.3424 25.2319 40.9736 23.2575 41.0435C22.4576 41.0435 21.7269 40.8858 21.0637 40.5734C20.4006 40.2609 19.8813 39.8481 19.5068 39.3352C19.1315 38.8222 18.9597 38.3078 18.9383 37.7513C18.9383 37.6442 18.9462 37.5764 18.9502 37.4782ZM27.9657 34.652C27.8146 34.8235 27.4194 34.9618 26.7817 35.0655C26.144 35.1705 25.3528 35.3061 24.4089 35.4727C23.4643 35.6393 22.7176 35.8916 22.1682 36.2304C21.6187 36.5691 21.3237 37.0544 21.3444 37.6877C21.377 38.7067 22.2795 39.4617 23.7243 39.4444C24.3628 39.4361 24.9854 39.2847 25.6406 39.0738C26.295 38.8637 26.8469 38.5629 27.2953 38.171C27.743 37.7797 27.9672 37.3109 27.9672 36.7655L27.9657 34.652ZM32.828 40.6784V28.9215H34.9439V30.5787H34.994C36.0754 29.2617 37.4455 28.6028 39.1034 28.6028C40.1729 28.6028 40.9593 28.786 41.4642 29.1525C41.9707 29.5189 42.3905 29.9655 42.7285 30.4909C43.3885 29.8341 44.0031 29.355 44.5677 29.0543C45.133 28.7529 45.898 28.6028 46.8625 28.6028C47.4692 28.6028 48.0894 28.7114 48.7263 28.9292C49.3609 29.1469 49.9119 29.552 50.3802 30.1445C50.847 30.7377 51.0808 31.5424 51.0808 32.5594V40.6784H48.8082V33.0765C48.8082 31.2617 47.963 30.3533 46.2733 30.3533C45.661 30.3533 45.1139 30.5033 44.6265 30.8041C44.1391 31.1048 43.7614 31.4989 43.4918 31.9876C43.2215 32.4764 43.0871 32.9873 43.0871 33.5217V40.6784H40.8145V32.5552C40.8145 31.9503 40.6499 31.4318 40.3215 31.0004C39.9939 30.5683 39.4501 30.3519 38.6931 30.3519C38.1707 30.3519 37.6347 30.4688 37.0861 30.701C36.5374 30.9333 36.0691 31.3433 35.6818 31.9309C35.2946 32.5186 35.1014 33.297 35.1014 34.267V40.6764L32.828 40.6784ZM62.2503 36.9895H64.5801C64.4998 37.4292 64.2589 37.9712 63.8573 38.6169C63.455 39.2626 62.8856 39.7991 62.1509 40.2277C61.7549 40.4697 61.2762 40.6653 60.7172 40.8153C60.1575 40.9653 59.4021 41.0407 58.4495 41.0407C57.4189 41.0407 56.495 40.8582 55.6784 40.4939C54.8625 40.1295 54.1906 39.6221 53.665 38.9708C52.8222 37.9055 52.4023 36.6307 52.4023 35.1443C52.4023 34.0976 52.5701 33.1394 52.9072 32.2683C53.2436 31.3979 53.7461 30.6713 54.4148 30.0899C55.008 29.552 55.6895 29.14 56.4568 28.8545C57.2241 28.569 58.0113 28.4265 58.8144 28.4265C59.4545 28.4265 60.0827 28.5206 60.6989 28.7086C61.3152 28.8967 61.8813 29.1836 62.3942 29.5679C62.9079 29.9516 63.3357 30.419 63.6752 30.9679C64.3829 32.1784 64.736 33.6766 64.736 35.463H54.8299C54.8299 36.7012 55.1623 37.6518 55.8278 38.3148C56.4934 38.9777 57.4682 39.3096 58.7572 39.3096C59.4315 39.3096 60.031 39.1824 60.5574 38.93C61.083 38.677 61.4909 38.3673 61.7819 37.9995C62.073 37.6359 62.2288 37.2971 62.2503 36.9895ZM54.8323 33.866H62.3576C62.2988 32.8421 61.976 32.0021 61.3884 31.3447C60.8007 30.6879 59.8744 30.3595 58.6069 30.3595C57.9207 30.3595 57.2885 30.5241 56.7097 30.8538C56.13 31.1829 55.6728 31.6185 55.3356 32.1605C55.0009 32.7011 54.8323 33.2708 54.8323 33.866ZM76.0589 32.2856H73.8365C73.8365 30.9686 72.7765 30.3098 70.6543 30.3098C70.3219 30.3098 69.949 30.3512 69.5371 30.4335C69.1236 30.5158 68.7554 30.6817 68.4278 30.9306C68.1018 31.1795 67.9396 31.5272 67.9396 31.9738C67.9396 32.2925 68.0191 32.5414 68.1798 32.7218C68.3396 32.9016 68.5853 33.0454 68.9185 33.1546C69.25 33.2638 69.751 33.3869 70.4205 33.5224C70.9135 33.624 71.5512 33.7609 72.3336 33.9324C73.1169 34.1024 73.8094 34.3105 74.4138 34.5546C75.0181 34.8 75.5111 35.1332 75.8943 35.5536C76.2768 35.9746 76.4692 36.4986 76.4692 37.125C76.4692 37.9152 76.2394 38.6079 75.7806 39.2031C75.321 39.7984 74.6873 40.2533 73.8762 40.5685C73.0652 40.8831 72.1476 41.0407 71.1202 41.0407C69.491 41.0407 68.2545 40.816 67.4077 40.3687C66.5624 39.9207 66.0106 39.4036 65.7545 38.8167C65.4977 38.2297 65.345 37.5923 65.2997 36.9051H67.5214C67.5587 37.5681 67.8156 38.135 68.2879 38.6051C68.7618 39.0766 69.7057 39.311 71.1202 39.311C71.9877 39.311 72.7169 39.1547 73.3085 38.8436C73.8985 38.5325 74.1943 38.0728 74.1943 37.4644C74.1943 37.0067 74.0051 36.6666 73.6234 36.4447C73.2425 36.2235 72.5364 35.9932 71.5051 35.7547C70.8658 35.6344 70.1979 35.5045 69.5037 35.3634C68.8095 35.2224 68.1917 35.0433 67.651 34.8263C67.1087 34.6085 66.6602 34.2953 66.3032 33.8874C65.9454 33.4788 65.7665 32.9617 65.7665 32.3368C65.7665 31.5099 65.9979 30.8158 66.4606 30.2558C66.9234 29.6958 67.542 29.2804 68.3165 29.01C69.091 28.739 69.9394 28.6042 70.861 28.6042C72.313 28.6042 73.4262 28.8434 74.1999 29.3225C74.9751 29.8009 75.4769 30.3174 75.7083 30.8704C75.9428 31.4228 76.0589 31.8943 76.0589 32.2856Z" fill="#767F84"/>
<path d="M0.469238 57.8592H2.0921C2.36494 60.4697 4.13167 61.7757 7.39154 61.7757C8.94835 61.7757 10.1152 61.4716 10.8944 60.8628C11.6728 60.2539 12.0612 59.4679 12.0612 58.5046C12.0612 57.411 11.6217 56.6595 10.7458 56.2513C9.86829 55.8438 8.4931 55.4411 6.621 55.0432C4.7489 54.6447 3.33126 54.1421 2.36965 53.5346C1.40726 52.9278 0.926847 51.9197 0.926847 50.5104C0.926847 49.9526 1.06209 49.4099 1.33257 48.8831C1.60383 48.3556 1.99932 47.8868 2.51983 47.4751C3.03955 47.0642 3.68979 46.7373 4.47056 46.4946C5.25132 46.2512 6.13273 46.1299 7.11635 46.1299C8.12042 46.1299 9.01282 46.2595 9.79595 46.5188C10.5791 46.7773 11.227 47.1297 11.742 47.5758C12.2554 48.0212 12.6454 48.539 12.9119 49.1293C13.1785 49.7202 13.3114 50.3449 13.3114 51.0041H11.6036C11.6036 50.2228 11.3984 49.563 10.9871 49.0238C10.5767 48.4846 10.0303 48.0833 9.34621 47.8192C8.66294 47.5551 7.91913 47.4227 7.11399 47.4227C5.62323 47.4227 4.491 47.733 3.71496 48.3536C2.93891 48.9741 2.55206 49.7167 2.55206 50.5807C2.55206 50.6814 2.56858 50.8372 2.6016 51.0468C2.77458 51.9453 3.26757 52.5451 4.079 52.8451C4.89042 53.1471 6.24595 53.4925 8.14636 53.8856C10.046 54.2786 11.4628 54.7874 12.3938 55.4114C13.3255 56.0368 13.791 57.0442 13.791 58.4364C13.791 59.4141 13.5323 60.256 13.0165 60.96C12.4999 61.664 11.7396 62.2018 10.7363 62.5734C9.73383 62.9451 8.52613 63.1299 7.11793 63.1299C5.8371 63.1299 4.69149 62.9292 3.68193 62.5279C2.67236 62.1259 1.88295 61.5274 1.31841 60.7324C0.752296 59.9402 0.469238 58.9824 0.469238 57.8592ZM16.41 52.25H14.5316V51.1578H16.41V47.9523H17.8843V51.1578H20.3681V52.25H17.8843V60.7317C17.8843 61.0765 17.9834 61.3302 18.1815 61.495C18.3796 61.6591 18.7099 61.7536 19.173 61.775C19.243 61.7667 19.3365 61.7577 19.4537 61.7453C19.5716 61.7315 19.673 61.7212 19.758 61.7116C19.8413 61.7026 19.9396 61.6916 20.0528 61.6791C20.1645 61.666 20.3013 61.6536 20.4672 61.6385V62.7307C19.9144 62.8796 19.3043 62.9541 18.6407 62.9541C17.1523 62.9541 16.41 62.2266 16.41 60.7752V52.25ZM30.8986 61.0848C29.8088 62.2701 28.5068 62.9079 26.9924 62.9975C26.0096 62.9975 25.1478 62.8734 24.4103 62.6252C23.6712 62.3776 23.0799 61.9356 22.6365 61.2999C22.193 60.6642 21.9697 59.8064 21.9697 58.728V51.1578H23.5195V58.7708C23.5195 59.9154 23.8466 60.7028 24.5007 61.1317C25.1541 61.5612 26.0104 61.7764 27.0671 61.7764C27.7692 61.7584 28.4101 61.5826 28.9927 61.2496C29.5737 60.9158 30.0376 60.4318 30.382 59.7981C30.7264 59.1652 30.8986 58.4226 30.8986 57.571V51.1578H32.4224V62.6872H30.8986V61.0848ZM45.3643 60.5525C44.972 61.2737 44.3194 61.8619 43.4081 62.3163C42.4953 62.7713 41.558 62.9982 40.5964 62.9982C39.5853 62.9803 38.6488 62.7872 37.791 62.4197C36.9332 62.0522 36.2256 61.4282 35.6704 60.5504C35.1153 59.6727 34.8299 58.5156 34.8126 57.0808C34.8126 55.7266 35.0674 54.5833 35.5777 53.6525C36.0864 52.7216 36.7594 52.0252 37.5937 51.5633C38.4295 51.1013 39.3282 50.8565 40.289 50.8276C41.3339 50.8276 42.3026 50.9986 43.1919 51.3412C44.0812 51.6839 44.8061 52.2321 45.3636 52.985V46.6429H46.8873V62.6886H45.3636V60.5518L45.3643 60.5525ZM36.4347 56.6781C36.4347 57.9027 36.636 58.8907 37.0393 59.6423C37.4427 60.3939 37.9671 60.9324 38.6127 61.2585C39.2598 61.5854 39.9871 61.7571 40.7969 61.7757C41.6516 61.7757 42.4268 61.5854 43.1235 61.2048C43.8193 60.8248 44.3674 60.2698 44.7652 59.5389C45.1638 58.8087 45.3636 57.944 45.3636 56.9436C45.3636 56.1251 45.2346 55.4066 44.9759 54.7881C44.718 54.1689 44.3619 53.6532 43.9082 53.2436C43.4537 52.8347 42.9301 52.5293 42.3372 52.3286C41.7452 52.1273 41.1138 52.0266 40.4447 52.0266C39.6678 52.0887 38.9854 52.3024 38.3941 52.6686C37.8036 53.0347 37.3358 53.558 36.9937 54.2386C36.6501 54.9205 36.4646 55.7328 36.4347 56.6781ZM49.9404 46.6429H51.6388V48.648H49.9404V46.6429ZM50.045 51.1578H51.5389V62.6872H50.045V51.1578ZM53.643 56.765C53.643 55.5335 53.9016 54.4696 54.4174 53.5732C54.9324 52.6768 55.6574 51.9942 56.5891 51.5274C57.5208 51.0599 58.5854 50.8262 59.7837 50.8262C61.0472 50.8262 62.1354 51.073 63.0459 51.5681C63.9572 52.0625 64.6515 52.7734 65.1311 53.7008C65.6099 54.6282 65.8498 55.7238 65.8498 56.9884C65.8498 57.9627 65.6878 58.8273 65.3639 59.5837C65.0391 60.338 64.5941 60.9696 64.0288 61.4771C63.4626 61.9839 62.8156 62.3645 62.0859 62.6183C61.3555 62.872 60.5896 62.9989 59.7829 62.9989C58.6758 62.9989 57.6584 62.7824 56.7283 62.3473C55.7989 61.9122 55.052 61.2254 54.4882 60.2884C53.9252 59.3486 53.643 58.1743 53.643 56.765ZM55.291 56.9022C55.291 57.9227 55.4789 58.8011 55.8555 59.5375C56.2321 60.2725 56.7487 60.829 57.4084 61.2082C58.0673 61.5867 58.8072 61.7757 59.6296 61.7757C60.4143 61.7757 61.1581 61.6178 61.8634 61.3027C62.5679 60.9876 63.1418 60.4684 63.5853 59.7457C64.0288 59.0231 64.2513 58.0895 64.2513 56.9442C64.2513 55.9734 64.094 55.1198 63.7764 54.3827C63.4611 53.6456 62.9579 53.0685 62.2683 52.652C61.5788 52.2355 60.6982 52.0266 59.6296 52.0266C58.8567 52.0266 58.1388 52.2128 57.476 52.5837C56.8132 52.9554 56.2832 53.5077 55.887 54.2434C55.4899 54.9805 55.291 55.8651 55.291 56.9022ZM75.5374 54.4785C75.3675 53.6918 74.9658 53.0864 74.3328 52.6637C73.6975 52.2397 72.9073 52.028 71.9614 52.028C71.2137 52.028 70.5666 52.1921 70.0162 52.5203C69.4666 52.8478 69.1427 53.3215 69.0436 53.9414C69.1096 54.2386 69.1427 54.4179 69.1427 54.4785C69.2457 54.9646 69.6223 55.3287 70.2733 55.5728C70.9228 55.8169 71.8435 56.063 73.0331 56.312C74.2235 56.5588 75.0082 56.7712 75.388 56.9449C76.1263 57.2807 76.6594 57.6586 76.9825 58.0778C77.3073 58.4963 77.4692 59.0755 77.4692 59.8188C77.4692 60.5283 77.1956 61.1248 76.6484 61.6061C76.1019 62.088 75.4194 62.4397 74.6033 62.6631C73.7871 62.8865 72.9906 62.9975 72.2146 62.9975C71.3183 62.9975 70.4943 62.8417 69.7418 62.53C68.9893 62.2183 68.3815 61.764 67.9145 61.1661C67.4467 60.567 67.1809 59.8719 67.1141 59.079H68.6339C68.8116 59.7306 69.0389 60.2408 69.3141 60.6063C69.5916 60.9724 69.903 61.2337 70.2497 61.3916C70.5965 61.5495 71.0053 61.664 71.4771 61.7315C71.5895 61.746 71.7554 61.7605 71.9795 61.775C72.2028 61.7895 72.3648 61.8033 72.4694 61.8184C73.3287 61.7929 74.1064 61.6054 74.8022 61.2558C75.4981 60.9069 75.8464 60.3815 75.8464 59.683C75.8464 59.0135 75.4643 58.4936 74.7 58.1233C74.3037 57.9171 73.5497 57.7075 72.4387 57.4959C71.3269 57.2828 70.4652 57.0946 69.8542 56.9277C69.2425 56.7615 68.6843 56.4499 68.1779 55.9934C67.6708 55.5369 67.4192 54.8984 67.4192 54.0759C67.4192 53.3801 67.6275 52.7851 68.045 52.2907C68.461 51.7963 69.0176 51.4254 69.7151 51.1771C70.4109 50.9289 71.1681 50.8048 71.9858 50.8048C72.2209 50.8048 72.3978 50.8124 72.5189 50.8269C73.8461 50.9172 74.8974 51.2482 75.6766 51.8184C76.4542 52.3893 76.933 53.276 77.1099 54.4772L75.5374 54.4785Z" fill="#767F84"/>
</svg>
