<svg width="19" height="18" viewBox="0 0 19 18" fill="none" xmlns="http://www.w3.org/2000/svg">
<g clipPath="url(#clip0_3052_2274)">
<path d="M9.75 0C14.72 0 18.75 4.03 18.75 9C18.75 13.97 14.72 18 9.75 18C4.78 18 0.75 13.9725 0.75 9C0.75 4.0275 4.78 0 9.75 0Z" fill="#26A17B"/>
<path d="M11.0172 7.99653V6.65653H14.0797V4.61653H5.7422V6.65653H8.8047V7.99653C6.3172 8.11153 4.4447 8.60403 4.4447 9.19403C4.4447 9.78403 6.3172 10.2765 8.8047 10.3915V14.679H11.0197V10.3915C13.5047 10.2765 15.3722 9.78403 15.3722 9.19403C15.3697 8.60403 13.5022 8.11153 11.0172 7.99653ZM11.0197 10.029C10.9572 10.0315 10.6372 10.0515 9.9222 10.0515C9.3497 10.0515 8.9497 10.0365 8.8072 10.029V10.0315C6.6097 9.93403 4.9672 9.55153 4.9672 9.09403C4.9672 8.63653 6.6072 8.25403 8.8072 8.15653V9.64653C8.9522 9.65653 9.3622 9.68153 9.9322 9.68153C10.6147 9.68153 10.9572 9.65403 11.0222 9.64653V8.15153C13.2172 8.24903 14.8547 8.63153 14.8547 9.08903C14.8497 9.54653 13.2122 9.92903 11.0197 10.029Z" fill="white"/>
</g>
<defs>
<clipPath id="clip0_3052_2274">
<rect width="18" height="18" fill="white" transform="translate(0.75)"/>
</clipPath>
</defs>
</svg>
