<svg width="60" height="60" viewBox="0 0 60 60" fill="none" xmlns="http://www.w3.org/2000/svg">
<mask id="mask0_475_3369" style="mask-type:luminance" maskUnits="userSpaceOnUse" x="0" y="0" width="60" height="60">
<path d="M60 0H0V60H60V0Z" fill="white"/>
</mask>
<g mask="url(#mask0_475_3369)">
<g filter="url(#filter0_ii_475_3369)">
<path d="M30.0423 59.9822C46.6009 59.9822 60.0244 46.7717 60.0244 30.476C60.0244 14.1803 46.6009 0.969971 30.0423 0.969971C13.4837 0.969971 0.0603027 14.1803 0.0603027 30.476C0.0603027 46.7717 13.4837 59.9822 30.0423 59.9822Z" fill="#2E3A41"/>
</g>
<path d="M24.41 34.5888L30.0001 41.9443L35.5903 34.5888L30.0001 37.8804L24.41 34.5888ZM37.457 30.2277L30.0001 18.6333L22.5432 30.2277L30.0001 34.6194L37.457 30.2277ZM18.3872 31.3888L30.0001 13.3333L41.613 31.3888L30.0001 46.6665L18.3872 31.3888Z" fill="white"/>
</g>
<defs>
<filter id="filter0_ii_475_3369" x="0.0603027" y="-1.03003" width="59.9641" height="65.0122" filterUnits="userSpaceOnUse" color-interpolation-filters="sRGB">
<feFlood flood-opacity="0" result="BackgroundImageFix"/>
<feBlend mode="normal" in="SourceGraphic" in2="BackgroundImageFix" result="shape"/>
<feColorMatrix in="SourceAlpha" type="matrix" values="0 0 0 0 0 0 0 0 0 0 0 0 0 0 0 0 0 0 127 0" result="hardAlpha"/>
<feOffset dy="4"/>
<feGaussianBlur stdDeviation="2"/>
<feComposite in2="hardAlpha" operator="arithmetic" k2="-1" k3="1"/>
<feColorMatrix type="matrix" values="0 0 0 0 0 0 0 0 0 0 0 0 0 0 0 0 0 0 0.25 0"/>
<feBlend mode="normal" in2="shape" result="effect1_innerShadow_475_3369"/>
<feColorMatrix in="SourceAlpha" type="matrix" values="0 0 0 0 0 0 0 0 0 0 0 0 0 0 0 0 0 0 127 0" result="hardAlpha"/>
<feOffset dy="-2"/>
<feGaussianBlur stdDeviation="2"/>
<feComposite in2="hardAlpha" operator="arithmetic" k2="-1" k3="1"/>
<feColorMatrix type="matrix" values="0 0 0 0 1 0 0 0 0 1 0 0 0 0 1 0 0 0 0.07 0"/>
<feBlend mode="normal" in2="effect1_innerShadow_475_3369" result="effect2_innerShadow_475_3369"/>
</filter>
</defs>
</svg>
