<svg width="60" height="60" viewBox="0 0 60 60" fill="none" xmlns="http://www.w3.org/2000/svg">
<mask id="mask0_475_3355" style="mask-type:luminance" maskUnits="userSpaceOnUse" x="0" y="0" width="60" height="60">
<path d="M60 0.169189H0V59.6692H60V0.169189Z" fill="white"/>
</mask>
<g mask="url(#mask0_475_3355)">
<g filter="url(#filter0_ii_475_3355)">
<path d="M30.0423 59.982C46.6009 59.982 60.0244 46.7714 60.0244 30.4758C60.0244 14.18 46.6009 0.969727 30.0423 0.969727C13.4837 0.969727 0.0603027 14.18 0.0603027 30.4758C0.0603027 46.7714 13.4837 59.982 30.0423 59.982Z" fill="#2E3A41"/>
</g>
<path d="M41.1501 23.3996C41.1501 22.7496 41.2001 22.0996 41.1501 21.4496C41.0501 19.9996 40.0501 18.6996 38.6501 18.2996C37.7501 18.0496 36.6001 18.1496 35.6501 18.1496C32.2001 18.1496 28.7501 18.1496 25.3001 18.1496C24.3001 18.1496 23.1501 18.0496 22.1501 18.3496C20.6501 18.7996 19.4501 20.0496 19.0501 21.5496C18.8501 22.3496 18.8001 23.1996 18.8501 23.9996V27.7996V31.0496V34.6496V37.2996V37.8496C18.8501 39.9996 20.6001 41.6996 22.7001 41.6996H37.2501C39.4001 41.6996 41.1001 39.9496 41.1001 37.8496V29.1996C41.1001 27.0496 39.3501 25.3496 37.2501 25.3496C35.0501 25.3496 32.8001 25.3496 30.6001 25.3496C28.4501 25.3496 26.3001 25.3496 24.1501 25.3496C23.7501 25.3496 23.3501 25.3996 23.0001 25.2996C20.8501 24.9496 20.1001 22.0996 21.8501 20.7496C22.6501 20.0996 23.6501 20.1996 24.6501 20.1996H34.1001H37.6001C38.3501 20.1996 39.0001 20.5996 39.1501 21.3996C39.2501 22.0496 39.1501 22.7496 39.1501 23.3996C39.1501 24.6996 41.1501 24.6996 41.1501 23.3996ZM39.1501 35.3996H33.8501C32.8501 35.3996 32.0001 34.5496 32.0001 33.5496C32.0001 32.5496 32.8501 31.6996 33.8501 31.6996H39.1001V35.3996H39.1501ZM39.1501 29.1996V29.6996H33.8501C31.7001 29.6996 30.0001 31.4496 30.0001 33.5496C30.0001 35.6496 31.7501 37.3996 33.8501 37.3996H39.1001V37.8996C39.1001 38.8996 38.2501 39.7496 37.2501 39.7496H22.7501C21.7501 39.7496 20.9001 38.8996 20.9001 37.8996V27.2996H37.3001C38.3001 27.2996 39.1501 28.1496 39.1501 29.1996Z" fill="white"/>
<path d="M26.1 21.7996C25.65 21.7996 25.25 21.7996 24.8 21.7996C23.5 21.7996 23.5 23.7996 24.8 23.7996H33.85H35.15C36.45 23.7996 36.45 21.7996 35.15 21.7996C32.15 21.7996 29.15 21.7996 26.1 21.7996Z" fill="white"/>
</g>
<defs>
<filter id="filter0_ii_475_3355" x="0.0603027" y="-1.03027" width="59.9641" height="65.0122" filterUnits="userSpaceOnUse" color-interpolation-filters="sRGB">
<feFlood flood-opacity="0" result="BackgroundImageFix"/>
<feBlend mode="normal" in="SourceGraphic" in2="BackgroundImageFix" result="shape"/>
<feColorMatrix in="SourceAlpha" type="matrix" values="0 0 0 0 0 0 0 0 0 0 0 0 0 0 0 0 0 0 127 0" result="hardAlpha"/>
<feOffset dy="4"/>
<feGaussianBlur stdDeviation="2"/>
<feComposite in2="hardAlpha" operator="arithmetic" k2="-1" k3="1"/>
<feColorMatrix type="matrix" values="0 0 0 0 0 0 0 0 0 0 0 0 0 0 0 0 0 0 0.25 0"/>
<feBlend mode="normal" in2="shape" result="effect1_innerShadow_475_3355"/>
<feColorMatrix in="SourceAlpha" type="matrix" values="0 0 0 0 0 0 0 0 0 0 0 0 0 0 0 0 0 0 127 0" result="hardAlpha"/>
<feOffset dy="-2"/>
<feGaussianBlur stdDeviation="2"/>
<feComposite in2="hardAlpha" operator="arithmetic" k2="-1" k3="1"/>
<feColorMatrix type="matrix" values="0 0 0 0 1 0 0 0 0 1 0 0 0 0 1 0 0 0 0.07 0"/>
<feBlend mode="normal" in2="effect1_innerShadow_475_3355" result="effect2_innerShadow_475_3355"/>
</filter>
</defs>
</svg>
