<svg width="76" height="76" viewBox="0 0 76 76" fill="none" xmlns="http://www.w3.org/2000/svg">
<g filter="url(#filter0_d_4361_4036)">
<rect x="16" y="15" width="44" height="44" rx="4" fill="#00ACE6" shape-rendering="crispEdges"/>
<path d="M44.8097 29.9022C44.7751 30.1913 44.7443 30.4843 44.7019 30.7696C44.5017 32.0996 44.0397 33.341 43.389 34.5129C42.7807 35.6039 42.0261 36.5831 41.102 37.4235C41.0173 37.5006 41.0173 37.5854 41.0096 37.6818C40.9095 39.6518 40.178 41.3557 38.8112 42.7783C38.7419 42.8515 38.6303 42.9132 38.5302 42.9286C38.3685 42.9594 38.2337 42.8168 38.2067 42.6318C38.0989 41.8723 37.9911 41.109 37.8756 40.3148C37.7755 40.4035 37.6947 40.4768 37.61 40.55C37.4021 40.7351 37.2596 40.7312 37.0633 40.5307C35.785 39.2508 34.5106 37.9748 33.2324 36.6949C33.036 36.4983 33.0322 36.3557 33.217 36.1475C33.2901 36.0665 33.3594 35.9856 33.4518 35.8853C33.0784 35.8314 32.7318 35.7812 32.3892 35.7311C31.9657 35.6694 31.5422 35.6116 31.1225 35.5538C30.9877 35.5345 30.8838 35.4728 30.8414 35.3418C30.7952 35.2068 30.8453 35.0912 30.9454 34.9909C31.8425 34.112 32.8897 33.4797 34.0871 33.1019C34.7532 32.8899 35.4385 32.7704 36.1354 32.7473C36.2008 32.7434 36.2855 32.7087 36.3317 32.6586C37.9026 30.9739 39.8084 29.8521 42.0299 29.2584C42.5998 29.1042 43.185 29.0078 43.774 28.9731C43.8125 28.9693 43.8472 28.9577 43.8857 28.95C44.1167 28.95 44.3477 28.95 44.5787 28.95C44.6557 29.0271 44.7327 29.1042 44.8097 29.1813C44.8097 29.4203 44.8097 29.6632 44.8097 29.9022ZM40.5861 34.7172C41.4332 34.7172 42.1262 34.0195 42.1262 33.1752C42.1223 32.3348 41.437 31.6447 40.5977 31.637C39.7545 31.6332 39.0538 32.3232 39.0538 33.1713C39.0461 34.0195 39.7391 34.7172 40.5861 34.7172Z" fill="white"/>
<path d="M33.1667 38.5632C34.0952 38.5918 34.8962 39.2131 35.1304 40.1042C35.3564 40.983 34.9743 41.8864 34.1691 42.3319C33.8446 42.5118 33.5077 42.6835 33.1626 42.8143C32.2506 43.1494 31.3304 43.4601 30.4184 43.7789C30.2828 43.828 30.1555 43.8157 30.0487 43.7135C29.9419 43.6113 29.9296 43.4887 29.9747 43.3456C30.3486 42.1562 30.7388 40.9708 31.2893 39.8467C31.5605 39.2989 31.9343 38.8698 32.5423 38.6858C32.7436 38.6327 32.9572 38.6041 33.1667 38.5632Z" fill="white"/>
</g>
<defs>
<filter id="filter0_d_4361_4036" x="0" y="0" width="76" height="76" filterUnits="userSpaceOnUse" color-interpolation-filters="sRGB">
<feFlood flood-opacity="0" result="BackgroundImageFix"/>
<feColorMatrix in="SourceAlpha" type="matrix" values="0 0 0 0 0 0 0 0 0 0 0 0 0 0 0 0 0 0 127 0" result="hardAlpha"/>
<feOffset dy="1"/>
<feGaussianBlur stdDeviation="8"/>
<feComposite in2="hardAlpha" operator="out"/>
<feColorMatrix type="matrix" values="0 0 0 0 0 0 0 0 0 0 0 0 0 0 0 0 0 0 0.25 0"/>
<feBlend mode="normal" in2="BackgroundImageFix" result="effect1_dropShadow_4361_4036"/>
<feBlend mode="normal" in="SourceGraphic" in2="effect1_dropShadow_4361_4036" result="shape"/>
</filter>
</defs>
</svg>
