    <svg
                xmlns="http://www.w3.org/2000/svg"
                width="25"
                height="26"
                viewBox="0 0 25 26"
                fill="none"
              >
                <g clip-path="url(#clip0_4320_1065)">
                  <path
                    d="M12.5 25.5C19.4036 25.5 25 19.9036 25 13C25 6.09644 19.4036 0.5 12.5 0.5C5.59644 0.5 0 6.09644 0 13C0 19.9036 5.59644 25.5 12.5 25.5Z"
                    fill="#C8C8C8"
                  />
                  <path
                    opacity="0.2"
                    d="M17.4624 1.52539L0.678223 17.0703C1.03715 18.1127 1.53303 19.1029 2.15283 20.0146L20.2847 3.21777C19.4226 2.53169 18.4737 1.96263 17.4624 1.52539ZM21.1333 3.96094L2.82666 20.9165C3.09131 21.2397 3.37126 21.549 3.6665 21.8442L21.9937 4.86914C21.7222 4.55207 21.4351 4.24879 21.1333 3.96045V3.96094ZM22.876 6.02734L4.75488 22.8115C5.56431 23.4515 6.44998 23.9886 7.3916 24.4106L24.2676 8.77783C23.9194 7.8069 23.452 6.88299 22.876 6.02734Z"
                    fill="white"
                  />
                  <path
                    d="M19.8969 20.3997C23.9837 16.3129 23.9837 9.68705 19.8969 5.60032C15.8102 1.51359 9.18432 1.51359 5.09759 5.60032C1.01086 9.68705 1.01086 16.3129 5.09759 20.3997C9.18432 24.4864 15.8102 24.4864 19.8969 20.3997Z"
                    fill="#7A7A7A"
                  />
                  <path
                    d="M19.5707 20.0735C23.4773 16.1669 23.4773 9.83311 19.5707 5.92655C15.6642 2.01999 9.33038 2.01999 5.42382 5.92655C1.51726 9.83311 1.51726 16.1669 5.42382 20.0735C9.33038 23.98 15.6642 23.98 19.5707 20.0735Z"
                    fill="#888888"
                  />
                  <path
                    opacity="0.18"
                    d="M15.4097 3.42627L2.73438 15.1675C2.97921 16.2743 3.41137 17.3312 4.01221 18.2925L18.4272 4.94043C17.5148 4.2678 16.4943 3.75574 15.4097 3.42627ZM19.2974 5.66113L4.66309 19.2158C4.92252 19.5429 5.20203 19.8536 5.5 20.146L20.1606 6.56689C19.892 6.24728 19.6037 5.94477 19.2974 5.66113ZM21.0166 7.74951L6.6123 21.0889C7.46893 21.7132 8.41969 22.1968 9.42871 22.5215L22.229 10.667C21.983 9.63609 21.5737 8.65116 21.0166 7.74951Z"
                    fill="#C8C8C8"
                  />
                  <path
                    d="M20.7031 4.79688C18.5138 2.68848 15.5846 1.52335 12.5452 1.55196C9.50589 1.58057 6.59913 2.80066 4.44989 4.94989C2.30066 7.09913 1.08057 10.0059 1.05196 13.0452C1.02335 16.0846 2.18848 19.0138 4.29688 21.2031C6.4862 23.3115 9.41542 24.4767 12.4548 24.448C15.4941 24.4194 18.4009 23.1993 20.5501 21.0501C22.6993 18.9009 23.9194 15.9941 23.948 12.9548C23.9767 9.91542 22.8115 6.9862 20.7031 4.79688ZM12.5 24.4561C6.18311 24.4561 1.04395 19.3169 1.04395 13C1.04395 6.68311 6.18311 1.54395 12.5 1.54395C18.8169 1.54395 23.9561 6.68311 23.9561 13C23.9561 19.3169 18.8169 24.4561 12.5 24.4561Z"
                    fill="#F2C341"
                  />
                  <path
                    d="M11.5723 18.9976V17.9102C11.4587 17.8887 11.347 17.8631 11.2373 17.8335C10.8472 17.7278 10.4742 17.5667 10.1299 17.355C9.77786 17.1353 9.45612 16.8706 9.17285 16.5674L8.93555 16.3169L10.3057 14.6567L10.6069 15.021C10.8414 15.3151 11.1352 15.5565 11.4692 15.7295C11.7827 15.8835 12.1278 15.9619 12.4771 15.9585C12.9707 15.9585 13.3315 15.8711 13.5488 15.6987C13.7417 15.5464 13.8354 15.3047 13.8354 14.96V14.9531C13.8354 14.7485 13.7935 14.5933 13.7114 14.4917C13.6105 14.3692 13.4789 14.2757 13.3301 14.2207C13.0743 14.1276 12.8107 14.0573 12.5425 14.0107H12.5332C12.507 14.0082 12.481 14.0034 12.4556 13.9966L12.4121 13.9883L12.3428 13.9751C11.864 13.8929 11.393 13.7709 10.9346 13.6104C10.5195 13.4556 10.1631 13.1748 9.87402 12.7754C9.58496 12.376 9.43457 11.812 9.43457 11.1108V11.1045C9.43457 10.437 9.56152 9.86768 9.81152 9.4126C10.0718 8.93953 10.48 8.5649 10.9736 8.34619C11.1669 8.25865 11.368 8.18966 11.5742 8.14014V7.00244H13.6206V8.08643L13.7183 8.10547C14.0333 8.17308 14.3406 8.27289 14.6353 8.40332C14.9435 8.54029 15.2394 8.70366 15.5195 8.8916L15.8579 9.11719L14.6338 10.7998L14.3213 10.5884C14.0716 10.4157 13.8009 10.2757 13.5156 10.1719C13.2789 10.0876 13.0296 10.0435 12.7783 10.0415C12.3286 10.0415 11.9971 10.125 11.8018 10.29C11.6216 10.4365 11.5342 10.6719 11.5342 11.0029V11.0093C11.5342 11.2188 11.5801 11.3765 11.6704 11.4775C11.7868 11.6062 11.9347 11.7023 12.0996 11.7563C12.4056 11.8565 12.7169 11.9393 13.0322 12.0044L13.0908 12.019L13.1289 12.0273L13.1963 12.0415L13.2451 12.0522H13.2544C13.7044 12.1446 14.1429 12.2861 14.562 12.4741C14.9684 12.6708 15.3098 12.9799 15.5459 13.3647C15.8052 13.77 15.9365 14.3125 15.9365 14.9761V14.9883C15.9365 15.6392 15.8037 16.1953 15.5415 16.6411C15.272 17.0996 14.8672 17.4458 14.3374 17.6709C14.1072 17.7667 13.8678 17.839 13.623 17.8867V18.9951L11.5723 18.9976Z"
                    fill="#7A7A7A"
                  />
                  <path
                    d="M11.3403 17.4565C10.9863 17.3609 10.6478 17.2147 10.3354 17.0225C10.0119 16.8214 9.71637 16.5784 9.45654 16.2998L10.3062 15.27C10.5752 15.6066 10.9123 15.8824 11.2954 16.0796C11.6628 16.2606 12.0675 16.3529 12.4771 16.3491C13.063 16.3491 13.5011 16.2352 13.7915 16.0073C14.0819 15.7795 14.2267 15.4312 14.2261 14.9624V14.9531C14.2261 14.6559 14.1558 14.4202 14.0151 14.2461C13.8708 14.07 13.6825 13.9353 13.4692 13.8555C13.1913 13.7536 12.9049 13.6768 12.6133 13.626C12.6023 13.6222 12.5907 13.62 12.5791 13.6196C12.5675 13.6194 12.556 13.6174 12.5449 13.6138L12.48 13.6011L12.4146 13.5889C11.8612 13.4854 11.4126 13.3695 11.0688 13.2412C10.7251 13.113 10.4321 12.8804 10.1899 12.5435C9.94613 12.2065 9.82422 11.728 9.82422 11.1079V11.1016C9.82422 10.498 9.93376 9.99675 10.1528 9.59766C10.3728 9.19804 10.7182 8.88196 11.1357 8.69824C11.5723 8.49772 12.1191 8.39746 12.7764 8.39746C13.0652 8.39732 13.3532 8.42743 13.6357 8.4873C13.9245 8.54921 14.2061 8.64067 14.4761 8.76025C14.7636 8.88815 15.0396 9.04074 15.3008 9.21631L14.5376 10.2656C14.2599 10.0737 13.9586 9.91846 13.6411 9.80371C13.3633 9.7049 13.0708 9.65357 12.7759 9.65186C12.23 9.65186 11.8206 9.76449 11.5479 9.98975C11.2751 10.215 11.1387 10.5531 11.1387 11.0039V11.0103C11.1387 11.3205 11.2173 11.5633 11.3745 11.7388C11.5351 11.9171 11.7392 12.0506 11.9668 12.1265C12.2872 12.2315 12.6132 12.3184 12.9434 12.3867L12.9922 12.3994C13.0088 12.4033 13.0273 12.4077 13.0479 12.4116L13.1069 12.4243L13.166 12.4365C13.5875 12.5223 13.9982 12.6544 14.3906 12.8306C14.7305 12.9957 15.0157 13.255 15.2124 13.5776C15.4318 13.9207 15.5413 14.388 15.541 14.9795V14.9917C15.541 15.5747 15.4271 16.0596 15.1992 16.4463C14.9714 16.833 14.6312 17.1226 14.1787 17.3149C13.7259 17.5067 13.1585 17.6027 12.4766 17.603C12.093 17.6048 11.7109 17.5556 11.3403 17.4565ZM11.9629 7.39307H13.2285V8.80908H11.9629V7.39307ZM11.9629 17.1123H13.2285V18.6069H11.9629V17.1123Z"
                    fill="#C8C8C8"
                  />
                </g>
                <defs>
                  <clipPath id="clip0_4320_1065">
                    <rect
                      width="25"
                      height="25"
                      fill="white"
                      transform="translate(0 0.5)"
                    />
                  </clipPath>
                </defs>
              </svg>