<svg width="18" height="18" viewBox="0 0 18 18" fill="none" xmlns="http://www.w3.org/2000/svg">
<g id="fi_6830944" clip-path="url(#clip0_4515_520)">
<path id="Vector" d="M10.9469 1.01814e-06C9.99866 -0.00111025 9.05994 0.189435 8.18714 0.560193C7.31435 0.930952 6.52548 1.47428 5.86792 2.15754C6.37684 2.06531 6.89302 2.01907 7.41022 2.01938C8.53825 2.01854 9.65537 2.24011 10.6977 2.6714C11.74 3.10269 12.6871 3.73525 13.4847 4.53288C14.2823 5.33051 14.9149 6.27757 15.3462 7.31989C15.7775 8.3622 15.999 9.47932 15.9982 10.6073C15.9984 11.1142 15.954 11.62 15.8657 12.1191C16.5437 11.4619 17.0825 10.675 17.4501 9.80532C17.8177 8.93559 18.0065 8.00078 18.0053 7.05656C18.0053 3.1602 14.8451 1.01814e-06 10.9469 1.01814e-06Z" fill="#5C666C"/>
<path id="Vector_2" d="M7.41023 3.21469C3.32719 3.21469 0.0175781 6.5243 0.0175781 10.6073C0.0175781 14.6904 3.32719 18 7.41023 18C11.4933 18 14.8029 14.69 14.8029 10.6073C14.8029 6.52465 11.4929 3.21469 7.41023 3.21469ZM9.07066 11.0545C8.94059 11.2099 8.75426 11.4149 8.48566 11.6831C8.21707 11.9514 8.01246 12.1373 7.85707 12.2695C7.73182 12.3745 7.57364 12.432 7.41023 12.432C7.24683 12.432 7.08865 12.3745 6.9634 12.2695C6.80801 12.1391 6.60305 11.9531 6.3348 11.6845C6.06656 11.4159 5.87988 11.2113 5.7498 11.0559C5.64486 10.9307 5.58735 10.7725 5.58735 10.6091C5.58735 10.4457 5.64486 10.2875 5.7498 10.1623C5.87988 10.0069 6.06621 9.80156 6.3348 9.53367C6.6034 9.26578 6.80801 9.07875 6.9634 8.94867C7.08865 8.84373 7.24683 8.78622 7.41023 8.78622C7.57364 8.78622 7.73182 8.84373 7.85707 8.94867C8.01246 9.07875 8.21742 9.26508 8.48566 9.53367C8.75391 9.80227 8.94059 10.0051 9.07031 10.1602C9.17535 10.2854 9.23292 10.4437 9.23292 10.6072C9.23292 10.7706 9.17535 10.9289 9.07031 11.0542L9.07066 11.0545Z" fill="#00A7E0"/>
</g>
<defs>
<clipPath id="clip0_4515_520">
<rect width="18" height="18" fill="white"/>
</clipPath>
</defs>
</svg>
