<svg width="20" height="16" viewBox="0 0 20 16" fill="none" xmlns="http://www.w3.org/2000/svg">
<g id="Group">
<path id="Vector" d="M9.71885 8.36852C10.2371 8.37275 10.745 8.22361 11.1787 7.93987C11.6124 7.65614 11.9525 7.25047 12.1562 6.77392C12.3554 6.29808 12.4068 5.7733 12.3036 5.26786C12.2005 4.76242 11.9476 4.29973 11.5778 3.94C11.3011 3.66823 10.9681 3.46047 10.6024 3.33136C10.2366 3.20225 9.847 3.15493 9.46098 3.19275C9.07496 3.23056 8.70193 3.35258 8.36819 3.55022C8.03445 3.74785 7.74811 4.01628 7.52937 4.33658C7.17953 4.83572 7.02046 5.44385 7.08112 6.05036C7.14177 6.65688 7.4181 7.22147 7.85986 7.64145C8.35975 8.11893 9.02767 8.38016 9.71885 8.36852Z" fill="#00ACE6"/>
<path id="Vector_2" d="M14.4861 15.8458C14.5911 15.8459 14.695 15.8247 14.7916 15.7835C14.8882 15.7423 14.9754 15.682 15.048 15.6062C15.1967 15.4564 15.2824 15.2554 15.2876 15.0444C15.2876 13.5565 14.6965 12.1296 13.6444 11.0775C12.5924 10.0254 11.1654 9.43434 9.67756 9.43434C8.18969 9.43434 6.76276 10.0254 5.71068 11.0775C4.6586 12.1296 4.06755 13.5565 4.06755 15.0444C4.06646 15.1495 4.08719 15.2537 4.12843 15.3504C4.16968 15.4471 4.23053 15.5342 4.30715 15.6062C4.37974 15.682 4.46695 15.7423 4.56352 15.7835C4.66008 15.8247 4.764 15.8459 4.86898 15.8458H14.4861Z" fill="#00ACE6"/>
<path id="Vector_3" d="M4.35673 4.9645C4.8386 4.96227 5.30937 4.81963 5.71143 4.55403C6.1135 4.28843 6.42943 3.91139 6.62057 3.46905C6.80541 2.91052 6.78556 2.30445 6.56456 1.75921C6.34356 1.21397 5.93582 0.765116 5.41426 0.492909C4.89269 0.220702 4.29131 0.14289 3.71764 0.273387C3.14397 0.403884 2.63542 0.73418 2.28293 1.20522C1.96821 1.66855 1.8264 2.22777 1.88228 2.78509C1.93816 3.3424 2.18819 3.86233 2.58863 4.25396C2.82189 4.48318 3.09822 4.66398 3.40167 4.78593C3.70513 4.90788 4.02972 4.96857 4.35673 4.9645Z" fill="#5C666C"/>
<path id="Vector_4" d="M6.05873 6.16252C5.78549 6.1188 5.50923 6.0967 5.23251 6.09642C4.54931 6.0248 3.85877 6.10958 3.21319 6.34434C2.5676 6.5791 1.9839 6.95768 1.50628 7.45142C1.03485 7.92205 0.663118 8.48287 0.413276 9.10038C0.163433 9.71789 0.0406071 10.3794 0.0521339 11.0455C0.0540433 11.1389 0.0747851 11.2309 0.113117 11.3161C0.151449 11.4013 0.206582 11.4778 0.275212 11.5412C0.414683 11.676 0.601771 11.7502 0.795729 11.7477H3.93535C4.64519 10.3676 5.86236 9.31623 7.33111 8.81467C6.57487 8.13223 6.11777 7.17944 6.05873 6.16252Z" fill="#5C666C"/>
<path id="Vector_5" d="M16.816 4.25396C17.2216 3.8665 17.4778 3.34864 17.5397 2.79118C17.6017 2.23372 17.4654 1.67225 17.1548 1.20522C16.8847 0.807658 16.5021 0.499817 16.0559 0.321165C15.6087 0.137581 15.1177 0.0887594 14.6431 0.180708C14.2874 0.243963 13.9506 0.386552 13.6576 0.597879C13.3646 0.809205 13.123 1.08384 12.9507 1.40137C12.7785 1.7189 12.68 2.07117 12.6626 2.432C12.6452 2.79282 12.7093 3.15294 12.8502 3.48558C13.0064 3.85581 13.2502 4.18252 13.5607 4.43758C13.8711 4.69264 14.239 4.86839 14.6325 4.94969C15.026 5.031 15.4334 5.01541 15.8195 4.90429C16.2057 4.79316 16.559 4.58982 16.8491 4.31179L16.816 4.25396Z" fill="#5C666C"/>
<path id="Vector_6" d="M13.3791 6.16252C13.6523 6.1188 13.9286 6.0967 14.2053 6.09642C14.8885 6.0248 15.579 6.10958 16.2246 6.34434C16.8702 6.5791 17.4539 6.95768 17.9315 7.45142C18.4029 7.92205 18.7747 8.48287 19.0245 9.10038C19.2744 9.71789 19.3972 10.3794 19.3857 11.0455C19.3838 11.1389 19.363 11.2309 19.3247 11.3161C19.2863 11.4013 19.2312 11.4778 19.1626 11.5412C19.0231 11.676 18.836 11.7502 18.6421 11.7477H15.5024C14.7926 10.3676 13.5754 9.31623 12.1067 8.81467C12.8629 8.13223 13.32 7.17944 13.3791 6.16252Z" fill="#5C666C"/>
</g>
</svg>
