<svg width="20" height="16" viewBox="0 0 20 16" fill="none" xmlns="http://www.w3.org/2000/svg">
<g id="Group">
<path id="Vector" d="M9.71881 8.36852C10.2371 8.37275 10.745 8.22361 11.1787 7.93987C11.6124 7.65614 11.9524 7.25047 12.1562 6.77392C12.3554 6.29808 12.4067 5.7733 12.3036 5.26786C12.2004 4.76242 11.9475 4.29973 11.5778 3.94C11.3011 3.66823 10.9681 3.46047 10.6023 3.33136C10.2366 3.20225 9.84696 3.15493 9.46094 3.19275C9.07492 3.23056 8.70189 3.35258 8.36815 3.55022C8.03441 3.74785 7.74808 4.01628 7.52934 4.33658C7.17949 4.83572 7.02043 5.44385 7.08108 6.05036C7.14173 6.65688 7.41806 7.22147 7.85982 7.64145C8.35971 8.11893 9.02763 8.38016 9.71881 8.36852Z" fill="#5C666C"/>
<path id="Vector_2" d="M14.4861 15.8458C14.5911 15.8459 14.695 15.8247 14.7916 15.7835C14.8881 15.7423 14.9753 15.682 15.0479 15.6062C15.1966 15.4564 15.2824 15.2554 15.2875 15.0444C15.2875 13.5565 14.6965 12.1296 13.6444 11.0775C12.5923 10.0254 11.1654 9.43434 9.67753 9.43434C8.18966 9.43434 6.76273 10.0254 5.71065 11.0775C4.65857 12.1296 4.06751 13.5565 4.06751 15.0444C4.06643 15.1495 4.08716 15.2537 4.1284 15.3504C4.16964 15.4471 4.2305 15.5342 4.30712 15.6062C4.37971 15.682 4.46692 15.7423 4.56349 15.7835C4.66005 15.8247 4.76397 15.8459 4.86895 15.8458H14.4861Z" fill="#5C666C"/>
<path id="Vector_3" d="M4.35666 4.9645C4.83853 4.96227 5.3093 4.81963 5.71137 4.55403C6.11343 4.28843 6.42936 3.91139 6.6205 3.46905C6.80534 2.91052 6.78549 2.30445 6.56449 1.75921C6.34349 1.21397 5.93575 0.765116 5.41419 0.492909C4.89262 0.220702 4.29124 0.14289 3.71757 0.273387C3.1439 0.403884 2.63535 0.73418 2.28286 1.20522C1.96814 1.66855 1.82633 2.22777 1.88221 2.78509C1.93809 3.3424 2.18812 3.86233 2.58856 4.25396C2.82183 4.48318 3.09815 4.66398 3.4016 4.78593C3.70506 4.90788 4.02965 4.96857 4.35666 4.9645Z" fill="#5C666C"/>
<path id="Vector_4" d="M6.05869 6.16252C5.78545 6.1188 5.50918 6.0967 5.23247 6.09642C4.54927 6.0248 3.85873 6.10958 3.21314 6.34434C2.56755 6.5791 1.98385 6.95768 1.50623 7.45142C1.03481 7.92205 0.663073 8.48287 0.41323 9.10038C0.163387 9.71789 0.0405614 10.3794 0.0520881 11.0455C0.0539976 11.1389 0.0747394 11.2309 0.113071 11.3161C0.151403 11.4013 0.206536 11.4778 0.275167 11.5412C0.414637 11.676 0.601725 11.7502 0.795683 11.7477H3.93531C4.64514 10.3676 5.86231 9.31623 7.33106 8.81467C6.57483 8.13223 6.11773 7.17944 6.05869 6.16252Z" fill="#5C666C"/>
<path id="Vector_5" d="M16.816 4.25396C17.2216 3.8665 17.4778 3.34864 17.5397 2.79118C17.6017 2.23372 17.4654 1.67225 17.1548 1.20522C16.8847 0.807658 16.5021 0.499817 16.0559 0.321165C15.6088 0.137581 15.1177 0.0887594 14.6431 0.180708C14.2874 0.243963 13.9506 0.386552 13.6576 0.597879C13.3646 0.809205 13.123 1.08384 12.9508 1.40137C12.7785 1.7189 12.68 2.07117 12.6626 2.432C12.6452 2.79282 12.7093 3.15294 12.8502 3.48558C13.0064 3.85581 13.2502 4.18252 13.5607 4.43758C13.8712 4.69264 14.239 4.86839 14.6325 4.94969C15.026 5.031 15.4334 5.01541 15.8195 4.90429C16.2057 4.79316 16.559 4.58982 16.8491 4.31179L16.816 4.25396Z" fill="#5C666C"/>
<path id="Vector_6" d="M13.379 6.16252C13.6523 6.1188 13.9285 6.0967 14.2052 6.09642C14.8884 6.0248 15.579 6.10958 16.2246 6.34434C16.8702 6.5791 17.4539 6.95768 17.9315 7.45142C18.4029 7.92205 18.7746 8.48287 19.0245 9.10038C19.2743 9.71789 19.3971 10.3794 19.3856 11.0455C19.3837 11.1389 19.363 11.2309 19.3246 11.3161C19.2863 11.4013 19.2312 11.4778 19.1625 11.5412C19.0231 11.676 18.836 11.7502 18.642 11.7477H15.5024C14.7926 10.3676 13.5754 9.31623 12.1066 8.81467C12.8629 8.13223 13.32 7.17944 13.379 6.16252Z" fill="#5C666C"/>
</g>
</svg>
