<svg width="33" height="31" viewBox="0 0 33 31" fill="none" xmlns="http://www.w3.org/2000/svg">
<path d="M3.59082 19.3626C3.22292 20.1911 2.95465 21.0489 2.83202 21.9433C2.74771 22.5298 2.70939 23.1237 2.7707 23.7248C2.80136 24.0108 2.83202 24.2967 2.901 24.5753C2.91633 24.6266 2.91633 24.6853 2.924 24.7512C2.89334 24.7366 2.87035 24.7366 2.86268 24.7292C2.28783 23.9081 1.85095 23.0284 1.60568 22.0606C1.36808 21.1368 1.30676 20.1984 1.42173 19.2453C1.52904 18.3436 1.80496 17.4931 2.25717 16.7013C2.47945 16.3128 2.72472 15.9462 3.0313 15.6089C3.0543 15.587 3.06962 15.5503 3.10028 15.5063C2.924 15.5136 2.7937 15.587 2.65574 15.6456C2.56376 15.6823 2.47945 15.7189 2.39514 15.7629C2.21119 15.8582 2.01957 15.9535 1.84329 16.0635C1.71299 16.1441 1.59035 16.2321 1.47539 16.3201C1.35275 16.4081 1.23778 16.5034 1.12281 16.606C1.00784 16.7087 0.908202 16.8113 0.808562 16.9286C0.708922 17.0386 0.616945 17.1559 0.52497 17.2805C0.432994 17.3978 0.356349 17.5224 0.272038 17.6471C0.195392 17.7717 0.134075 17.9037 0.0420991 18.0576C0.0191052 17.999 0.00377591 17.977 0.00377591 17.955C-0.019218 17.7497 0.0497637 14.5532 0.578623 13.2262C0.984848 12.1998 1.59035 11.2907 2.39514 10.4989C2.83969 10.0591 3.33789 9.68515 3.88208 9.36257C4.01237 9.28192 0.402338 10.5649 0.325691 10.6382C0.34102 10.5649 1.667 8.33617 2.25717 7.66901C2.86268 6.97985 3.5295 6.35668 4.25764 5.78483C5.63728 4.70711 7.15487 3.87866 8.84109 3.30681C9.8145 2.97689 10.8109 2.72762 11.8303 2.56633C12.8267 2.40504 13.8384 2.35372 14.8502 2.35372C15.0724 2.35372 15.287 2.35372 15.5017 2.35372C15.517 2.39771 15.5017 2.4197 15.471 2.42703C14.8502 2.63965 14.375 3.02821 13.9457 3.49009C13.7465 3.7027 13.5625 3.92998 13.3939 4.16458C13.2023 4.43585 12.7577 5.10301 12.7194 5.08101C11.9836 4.6118 11.1711 4.43585 10.2974 4.4725C9.37762 4.50916 8.48852 4.69245 7.62241 5.00037C7.0399 5.20565 6.47272 5.45491 5.9362 5.7555C5.90554 5.77017 5.87488 5.79216 5.84422 5.81416C5.83656 5.82149 5.82889 5.83615 5.8059 5.86547C6.08183 5.79949 6.33476 5.73351 6.60302 5.68952C6.87128 5.6382 7.13954 5.60888 7.4078 5.58688C7.67607 5.56489 7.952 5.55756 8.22026 5.55756C8.48086 5.55756 8.74912 5.57222 9.00971 5.60154C9.27798 5.63087 9.54624 5.68219 9.80683 5.73351C10.0674 5.78483 10.328 5.85081 10.6193 5.96811C10.5273 5.99744 10.4967 6.0121 10.466 6.01944C9.89881 6.12941 9.37761 6.34935 8.86408 6.59129C8.21259 6.89921 7.60709 7.28044 7.0399 7.713C6.46506 8.15288 5.95153 8.65142 5.48398 9.18661C4.9168 9.82445 4.44159 10.5209 4.01238 11.2467C3.96639 11.3274 3.9204 11.408 3.88208 11.4887C3.67513 11.9139 4.76351 11.0635 5.64494 10.3743C6.49571 9.70714 7.43846 9.17195 8.45786 8.76139C9.41594 8.38016 10.4123 8.12356 11.4394 8.00625C12.0602 7.93294 12.6811 7.91828 13.3019 7.95493C13.3249 7.95493 13.3402 7.96227 13.3632 7.9696C13.3709 8.02092 13.3326 8.02825 13.3019 8.04291C12.6044 8.32151 11.9606 8.68808 11.3398 9.10597C10.5426 9.64116 9.80684 10.257 9.16301 10.9535C8.74145 11.408 8.34289 11.8846 7.99798 12.3978C7.32349 13.3949 6.83296 14.4652 6.51871 15.6089C6.38075 16.1221 6.25811 16.6427 6.20446 17.1705C6.11248 17.9623 6.08183 18.7468 6.15847 19.5386C6.20446 20.0591 6.29643 20.565 6.42673 21.0709C6.48039 21.2835 6.5417 21.4888 6.60302 21.694C6.66434 21.6867 6.64135 20.8656 6.68733 20.521C6.8023 19.7439 7.00158 18.9961 7.33883 18.2849C7.53811 17.8597 7.7987 17.4785 8.08229 17.0972C8.09762 17.0826 8.77211 16.3568 8.77211 16.3787C8.71846 16.6793 8.84875 21.6574 12.9877 25.9096C12.9877 25.0298 12.4741 21.7893 12.5278 20.9975C12.5891 20.0518 12.7501 19.6559 13.1409 18.7835C13.5012 17.9697 13.9841 17.2292 14.6279 16.5987C15.0878 16.1515 14.6049 13.7028 15.2104 13.4462C15.517 13.3142 18.1996 16.672 20.6523 14.2526C21.0738 14.1133 21.8863 14.128 22.2619 13.8861C22.4995 13.7394 22.2619 12.669 21.848 11.628C21.4264 10.5503 20.4607 9.78779 19.311 9.46521C19.2573 9.45054 19.2267 9.42855 19.242 9.39189C19.265 9.31125 19.3033 9.25993 19.38 9.21594C19.8858 8.93001 20.384 8.63676 20.8822 8.35083C20.9742 8.29951 21.0585 8.23353 21.1505 8.18221C21.2195 8.14555 21.2731 8.07224 21.2808 7.99892C21.3268 7.67634 22.0549 3.4461 22.1162 3.08686C22.1546 2.87425 18.1306 6.93586 18.0386 7.06783C18.0616 7.09715 18.0923 7.08249 18.1153 7.06783C18.5522 6.84789 18.9891 6.62061 19.4336 6.40067C19.7555 6.23938 20.0928 6.09275 20.4223 5.93879C20.4453 5.93146 20.476 5.93879 20.5143 5.93879C20.4913 5.98278 20.4837 6.0121 20.4683 6.04143C20.1311 6.59129 19.7938 7.14115 19.4489 7.68367C19.1883 8.09423 18.9201 8.49013 18.6135 8.86403C18.4909 9.01066 18.3682 9.15729 18.2379 9.30392C18.0923 9.47254 17.916 9.61184 17.7244 9.72181C17.2185 10.0151 16.7203 9.99307 16.2375 9.69248C15.8389 9.44321 15.5246 9.10597 15.2947 8.70274C15.1261 8.40948 15.0571 8.07224 15.1108 7.74232C15.1797 7.28044 15.3943 6.88454 15.632 6.48865C15.9309 6.00477 16.2911 5.56489 16.6743 5.13966C17.3412 4.39919 18.0846 3.73936 18.8511 3.10153C19.5409 2.52967 20.2691 2.00181 21.0049 1.48128C21.7483 0.960748 22.5071 0.46221 23.2966 0.000329394C23.3349 -0.0216649 23.2736 1.06339 23.2046 1.57659C23.105 2.32439 23.0053 3.0722 22.9133 3.82734C22.852 4.34054 22.806 4.86107 22.7601 5.37427C22.7371 5.61621 22.7217 5.86548 22.6987 6.10741C22.6221 6.85522 22.8367 7.53704 23.2353 8.16754C23.4422 8.49746 23.6875 8.80538 23.9481 9.09864C24.3006 9.50187 24.6685 9.89043 25.0288 10.2863C25.3737 10.6602 25.7033 11.0415 26.0175 11.4447C26.3548 11.8846 26.669 12.3391 26.8606 12.8597C26.9909 13.2042 27.0599 13.5635 27.0599 13.9301C27.0599 14.1427 27.0522 14.3479 27.0522 14.5606C27.0446 15.0738 27.2055 15.5356 27.4968 15.9682C27.7191 16.2908 27.9873 16.5694 28.2633 16.8406C28.9607 17.5371 29.6889 18.2043 30.4553 18.8348C31.1298 19.392 31.812 19.9418 32.4941 20.4917C32.6168 20.587 32.7471 20.675 32.8774 20.7703C32.9234 20.7996 32.9617 20.8436 33 20.8802C32.9617 20.9462 32.9004 20.9609 32.8467 20.9682C32.5478 21.0415 32.2489 21.1149 31.9499 21.1735C31.6817 21.2248 31.4058 21.2615 31.1298 21.3055C31.0532 21.3201 30.9765 21.3348 30.8846 21.3568C30.8462 21.6207 30.8769 21.8773 30.9305 22.1339C30.9842 22.3832 31.0992 22.6105 31.2371 22.8231C31.3751 23.043 31.5667 23.2263 31.7583 23.4243C31.6127 23.5489 31.4671 23.6515 31.3061 23.7322C30.8846 23.9594 30.4324 24.1207 29.9495 24.2014C29.6582 24.2527 29.3746 24.2894 29.0757 24.2894C28.9531 24.2894 28.8534 24.326 28.7691 24.414C28.4395 24.7366 28.018 24.9712 27.5428 25.0078C26.7763 25.0738 26.0405 24.9858 25.343 24.6633C24.9981 24.502 24.6532 24.3407 24.316 24.1794C23.2276 23.6442 22.0932 23.1896 20.9359 22.8157C20.4453 22.6618 19.9548 22.5225 19.4413 22.4565C18.7131 22.3612 17.9927 22.3979 17.3258 22.7351C16.4291 23.1896 15.9002 23.9008 15.8082 24.8759C15.7852 25.0958 15.8236 25.3158 15.8772 25.5357C15.9539 25.851 16.0842 26.1442 16.2528 26.4228C16.6437 27.0606 17.1419 27.6105 17.7244 28.087C19.081 29.1941 20.6216 29.9932 22.3155 30.4991C22.4765 30.5504 22.6374 30.5944 22.7984 30.6237C22.8367 30.631 22.8674 30.6457 22.944 30.6824C22.875 30.7044 22.8367 30.7264 22.7984 30.7337C22.1929 30.807 21.595 30.9096 20.9895 30.9536C20.0851 31.0269 19.173 31.0123 18.2686 30.917C17.0882 30.7923 15.9462 30.5357 14.8502 30.1179C14.0607 29.8173 13.3019 29.4507 12.5891 29.0108C11.9453 28.6149 8.22792 27.5079 12.2825 30.4918C12.3055 30.5064 12.3208 30.5284 12.3592 30.5724C12.2902 30.5724 12.2595 30.5724 12.2289 30.5651C11.1098 30.3964 10.0598 30.0519 9.06337 29.5533C7.95966 28.9961 7.00158 28.2703 6.19679 27.3686C5.31536 26.3862 4.71752 25.2571 4.40327 23.9961C4.23465 23.3216 4.16567 22.6471 4.16567 21.958C4.158 21.3788 4.0507 18.3436 3.59082 19.3626ZM20.1158 19.9418C20.1004 20.0078 20.1234 20.0518 20.1464 20.1031C20.3074 20.4404 20.4607 20.7776 20.6293 21.1149C20.7059 21.2688 20.7902 21.4081 20.8822 21.5547C21.0585 21.8333 21.2961 22.0606 21.595 22.2219C21.7253 22.2952 21.8633 22.3685 22.0013 22.4345C22.6987 22.7571 23.3962 23.0723 24.1014 23.3876C24.5689 23.5929 25.0364 23.7835 25.5193 23.9375C26.0482 24.1134 26.5847 24.1647 27.1442 24.1061C27.1979 24.0987 27.2439 24.0987 27.2975 24.0914C27.3512 24.0841 27.4048 24.0914 27.4891 24.0621C27.3818 24.0254 27.3052 23.9961 27.2362 23.9741C27.0676 23.9155 26.8913 23.8641 26.7227 23.7908C26.1938 23.5782 25.7109 23.2923 25.2434 22.977C24.6685 22.5885 24.1474 22.1413 23.6262 21.694C23.2966 21.4081 22.9593 21.1295 22.5991 20.8802C21.9169 20.411 21.1658 20.0958 20.338 19.9565C20.2614 19.9418 20.1924 19.9198 20.1158 19.9418ZM25.2204 15.2424C25.0058 14.8758 24.7145 14.5825 24.3543 14.3406C23.9021 14.04 23.4039 13.8201 22.8904 13.6368C22.6298 13.5488 23.4805 15.5136 24.4769 15.7336C24.7835 15.8069 25.3507 15.4696 25.2204 15.2424Z" fill="white"/>
</svg>
