<svg width="25" height="24" viewBox="0 0 25 24" fill="none" xmlns="http://www.w3.org/2000/svg">
<g id="Nav icons">
<path id="Vector" d="M4.67625 14.492C4.45328 15.0265 4.2907 15.5799 4.21638 16.157C4.16528 16.5354 4.14205 16.9185 4.17921 17.3063C4.1978 17.4908 4.21638 17.6753 4.25818 17.855C4.26747 17.8881 4.26747 17.926 4.27212 17.9685C4.25354 17.9591 4.2396 17.9591 4.23496 17.9544C3.88657 17.4246 3.62179 16.857 3.47314 16.2326C3.32914 15.6367 3.29198 15.0312 3.36166 14.4163C3.42669 13.8346 3.59392 13.2859 3.86798 12.7751C4.0027 12.5244 4.15134 12.2879 4.33715 12.0703C4.35109 12.0561 4.36038 12.0325 4.37896 12.0041C4.27212 12.0088 4.19315 12.0561 4.10954 12.0939C4.05379 12.1176 4.0027 12.1412 3.9516 12.1696C3.84012 12.2311 3.72398 12.2926 3.61714 12.3635C3.53817 12.4156 3.46385 12.4723 3.39417 12.5291C3.31985 12.5859 3.25017 12.6473 3.18049 12.7136C3.11081 12.7798 3.05043 12.846 2.99004 12.9217C2.92965 12.9926 2.87391 13.0683 2.81816 13.1487C2.76242 13.2244 2.71597 13.3048 2.66487 13.3852C2.61842 13.4656 2.58126 13.5508 2.52551 13.6501C2.51158 13.6123 2.50229 13.5981 2.50229 13.5839C2.48835 13.4514 2.53016 11.3892 2.85068 10.5331C3.09688 9.87086 3.46385 9.28435 3.9516 8.77351C4.22102 8.48971 4.52296 8.24849 4.85277 8.04037C4.93174 7.98834 2.74384 8.81608 2.69739 8.86338C2.70668 8.81608 3.5103 7.37817 3.86798 6.94775C4.23496 6.50313 4.63909 6.10108 5.08039 5.73215C5.91653 5.03684 6.83629 4.50236 7.85824 4.13342C8.44818 3.92058 9.05206 3.75976 9.66988 3.6557C10.2738 3.55164 10.8869 3.51853 11.5001 3.51853C11.6348 3.51853 11.7649 3.51853 11.8949 3.51853C11.9042 3.54691 11.8949 3.5611 11.8764 3.56583C11.5001 3.703 11.2121 3.95368 10.952 4.25167C10.8312 4.38884 10.7197 4.53547 10.6175 4.68683C10.5014 4.86184 10.2319 5.29226 10.2087 5.27807C9.76278 4.97536 9.27039 4.86184 8.74083 4.88549C8.1834 4.90914 7.64456 5.02738 7.11964 5.22604C6.76661 5.35848 6.42286 5.5193 6.09769 5.71323C6.07911 5.72269 6.06053 5.73688 6.04195 5.75107C6.03731 5.7558 6.03266 5.76526 6.01873 5.78418C6.18596 5.74161 6.33925 5.69904 6.50183 5.67066C6.66441 5.63755 6.827 5.61863 6.98958 5.60444C7.15216 5.59025 7.31939 5.58552 7.48197 5.58552C7.63991 5.58552 7.8025 5.59498 7.96043 5.6139C8.12302 5.63282 8.2856 5.66593 8.44353 5.69904C8.60147 5.73215 8.75941 5.77472 8.93593 5.8504C8.88019 5.86932 8.86161 5.87878 8.84303 5.88351C8.49928 5.95446 8.1834 6.09635 7.87217 6.25244C7.47733 6.4511 7.11035 6.69706 6.76661 6.97613C6.41822 7.25992 6.10699 7.58156 5.82363 7.92685C5.47988 8.33835 5.19188 8.7877 4.93174 9.25596C4.90387 9.30799 4.876 9.36002 4.85277 9.41205C4.72735 9.68639 5.38697 9.13772 5.92118 8.6931C6.4368 8.26267 7.00816 7.91739 7.62598 7.65251C8.20663 7.40655 8.81051 7.241 9.43297 7.16533C9.80923 7.11803 10.1855 7.10856 10.5618 7.13222C10.5757 7.13222 10.585 7.13695 10.5989 7.14168C10.6036 7.17479 10.5803 7.17951 10.5618 7.18897C10.139 7.36871 9.74884 7.60521 9.37258 7.87482C8.88948 8.22011 8.44354 8.61742 8.05334 9.06677C7.79785 9.36002 7.5563 9.66747 7.34726 9.99857C6.93848 10.6418 6.64119 11.3324 6.45073 12.0703C6.36712 12.4014 6.29279 12.7372 6.26028 13.0778C6.20453 13.5886 6.18595 14.0947 6.23241 14.6055C6.26028 14.9414 6.31602 15.2677 6.39499 15.5941C6.42751 15.7313 6.46467 15.8637 6.50183 15.9962C6.53899 15.9914 6.52506 15.4617 6.55293 15.2394C6.62261 14.738 6.74338 14.2555 6.94777 13.7967C7.06855 13.5224 7.22648 13.2764 7.39836 13.0305C7.40765 13.021 7.81643 12.5527 7.81643 12.5669C7.78391 12.7609 7.86288 15.9725 10.3713 18.7159C10.3713 18.1483 10.0601 16.0576 10.0926 15.5468C10.1298 14.9366 10.2273 14.6812 10.4642 14.1184C10.6825 13.5933 10.9752 13.1156 11.3654 12.7088C11.6441 12.4203 11.3514 10.8405 11.7184 10.675C11.9042 10.5898 13.5301 12.7561 15.0165 11.1952C15.272 11.1054 15.7644 11.1148 15.992 10.9587C16.136 10.8641 15.992 10.1736 15.7412 9.50192C15.4857 8.80662 14.9004 8.3147 14.2036 8.10659C14.1711 8.09713 14.1525 8.08294 14.1618 8.05929C14.1757 8.00726 14.199 7.97415 14.2454 7.94577C14.552 7.7613 14.854 7.5721 15.1559 7.38763C15.2116 7.35452 15.2627 7.31195 15.3185 7.27884C15.3603 7.25519 15.3928 7.20789 15.3974 7.16059C15.4253 6.95248 15.8666 4.22329 15.9038 3.99152C15.927 3.85436 13.4883 6.47475 13.4325 6.55989C13.4464 6.57881 13.465 6.56935 13.479 6.55989C13.7437 6.41799 14.0085 6.27136 14.2779 6.12947C14.473 6.02541 14.6774 5.93081 14.8772 5.83148C14.8911 5.82675 14.9097 5.83148 14.9329 5.83148C14.919 5.85986 14.9143 5.87878 14.9051 5.8977C14.7007 6.25244 14.4963 6.60719 14.2872 6.95721C14.1293 7.22208 13.9667 7.4775 13.7809 7.71873C13.7066 7.81333 13.6323 7.90793 13.5533 8.00253C13.465 8.11132 13.3582 8.20118 13.2421 8.27213C12.9355 8.46133 12.6335 8.44714 12.3409 8.25321C12.0993 8.0924 11.9089 7.87482 11.7695 7.61467C11.6673 7.42547 11.6255 7.20789 11.658 6.99505C11.6998 6.69706 11.8299 6.44164 11.9739 6.18622C12.1551 5.87405 12.3734 5.59025 12.6057 5.31591C13.0098 4.83819 13.4604 4.41249 13.9249 4.00098C14.343 3.63205 14.7843 3.29149 15.2302 2.95566C15.6808 2.61984 16.1407 2.2982 16.6191 2.00021C16.6424 1.98602 16.6052 2.68606 16.5634 3.01715C16.503 3.49961 16.4426 3.98206 16.3869 4.46925C16.3497 4.80035 16.3218 5.13617 16.294 5.46727C16.28 5.62336 16.2707 5.78418 16.2568 5.94027C16.2104 6.42272 16.3404 6.86261 16.582 7.26938C16.7074 7.48223 16.856 7.68089 17.014 7.87009C17.2277 8.13024 17.4506 8.38092 17.669 8.63634C17.878 8.87757 18.0777 9.12353 18.2682 9.38367C18.4726 9.66747 18.663 9.96073 18.7792 10.2966C18.8581 10.5189 18.8999 10.7506 18.8999 10.9871C18.8999 11.1243 18.8953 11.2567 18.8953 11.3939C18.8907 11.725 18.9882 12.023 19.1647 12.3021C19.2994 12.5102 19.462 12.6899 19.6292 12.8649C20.052 13.3143 20.4933 13.7447 20.9578 14.1515C21.3666 14.5109 21.78 14.8657 22.1934 15.2204C22.2677 15.2819 22.3467 15.3387 22.4257 15.4002C22.4535 15.4191 22.4768 15.4475 22.5 15.4711C22.4768 15.5137 22.4396 15.5232 22.4071 15.5279C22.2259 15.5752 22.0448 15.6225 21.8636 15.6603C21.701 15.6934 21.5338 15.7171 21.3666 15.7455C21.3201 15.7549 21.2737 15.7644 21.2179 15.7786C21.1947 15.9489 21.2133 16.1144 21.2458 16.2799C21.2783 16.4408 21.348 16.5874 21.4316 16.7246C21.5152 16.8665 21.6313 16.9847 21.7475 17.1124C21.6592 17.1928 21.571 17.259 21.4734 17.3111C21.2179 17.4577 20.9438 17.5618 20.6512 17.6138C20.4747 17.6469 20.3028 17.6706 20.1216 17.6706C20.0473 17.6706 19.9869 17.6942 19.9358 17.751C19.7361 17.9591 19.4806 18.1104 19.1926 18.1341C18.7281 18.1767 18.2821 18.1199 17.8594 17.9118C17.6504 17.8077 17.4413 17.7037 17.237 17.5996C16.5773 17.2543 15.8898 16.9611 15.1884 16.7198C14.8911 16.6205 14.5938 16.5306 14.2826 16.4881C13.8413 16.4266 13.4046 16.4502 13.0005 16.6678C12.457 16.9611 12.1365 17.4199 12.0808 18.049C12.0668 18.1909 12.09 18.3328 12.1226 18.4746C12.169 18.678 12.248 18.8672 12.3502 19.047C12.5871 19.4585 12.889 19.8132 13.2421 20.1207C14.0643 20.8349 14.998 21.3505 16.0245 21.6768C16.1221 21.7099 16.2196 21.7383 16.3172 21.7572C16.3404 21.762 16.359 21.7714 16.4055 21.7951C16.3637 21.8093 16.3404 21.8235 16.3172 21.8282C15.9502 21.8755 15.5879 21.9417 15.2209 21.9701C14.6728 22.0174 14.12 22.0079 13.5719 21.9464C12.8565 21.866 12.1644 21.7005 11.5001 21.4309C11.0216 21.2369 10.5618 21.0004 10.1298 20.7166C9.73956 20.4612 7.48662 19.747 9.94395 21.6721C9.95788 21.6816 9.96717 21.6958 9.9904 21.7241C9.94859 21.7241 9.93001 21.7241 9.91143 21.7194C9.23323 21.6106 8.59683 21.3883 7.99295 21.0667C7.32404 20.7072 6.74338 20.2389 6.25563 19.6571C5.72143 19.0233 5.3591 18.2949 5.16865 17.4814C5.06645 17.0462 5.02465 16.611 5.02465 16.1664C5.02 15.7928 4.95497 13.8346 4.67625 14.492ZM14.6914 14.8657C14.6821 14.9083 14.696 14.9366 14.7099 14.9698C14.8075 15.1873 14.9004 15.4049 15.0026 15.6225C15.0491 15.7218 15.1001 15.8117 15.1559 15.9063C15.2627 16.086 15.4067 16.2326 15.5879 16.3367C15.6669 16.384 15.7505 16.4313 15.8341 16.4739C16.2568 16.682 16.6795 16.8854 17.1069 17.0888C17.3902 17.2212 17.6736 17.3442 17.9663 17.4435C18.2868 17.557 18.6119 17.5901 18.951 17.5523C18.9836 17.5476 19.0114 17.5476 19.0439 17.5428C19.0765 17.5381 19.109 17.5428 19.1601 17.5239C19.095 17.5003 19.0486 17.4814 19.0068 17.4672C18.9046 17.4293 18.7978 17.3962 18.6956 17.3489C18.375 17.2118 18.0824 17.0273 17.799 16.8239C17.4506 16.5732 17.1348 16.2847 16.8189 15.9962C16.6191 15.8117 16.4147 15.6319 16.1964 15.4711C15.783 15.1684 15.3278 14.965 14.8261 14.8752C14.7796 14.8657 14.7378 14.8515 14.6914 14.8657ZM17.7851 11.8338C17.655 11.5973 17.4785 11.4081 17.2602 11.252C16.9861 11.0581 16.6842 10.9162 16.3729 10.7979C16.215 10.7412 16.7306 12.0088 17.3345 12.1507C17.5203 12.198 17.8641 11.9804 17.7851 11.8338Z" fill="#5C666C"/>
</g>
</svg>
