              <svg
                xmlns="http://www.w3.org/2000/svg"
                width="13"
                height="22"
                viewBox="0 0 13 22"
                fill="none"
              >
                <path
                  d="M2.41833 21.8215C2.09866 21.6084 2.06314 21.4841 2.18746 21.1111C3.14647 18.2814 4.10549 15.4458 5.07042 12.6161C5.10002 12.5332 5.1237 12.4444 5.15922 12.3379C5.05266 12.3379 4.98163 12.3379 4.90467 12.3379C3.60822 12.3379 2.31177 12.3379 1.01532 12.3379C0.553575 12.3379 0.3819 12.0656 0.583175 11.6453C2.34729 7.93943 4.11141 4.23361 5.8696 0.527777C5.988 0.273224 6.17152 0.166664 6.44975 0.166664C8.25531 0.172584 10.0609 0.166666 11.8664 0.172586C12.3755 0.172586 12.565 0.504097 12.3045 0.948086C10.9962 3.18579 9.68791 5.4235 8.38554 7.6612C8.3441 7.73224 8.30266 7.80328 8.24346 7.90983C8.3441 7.91575 8.42106 7.92167 8.4921 7.92167C9.74119 7.92167 10.9903 7.92167 12.2334 7.92167C12.3045 7.92167 12.3755 7.91576 12.4466 7.9276C12.8728 7.98679 13.0385 8.3775 12.784 8.72085C12.2749 9.39572 11.7658 10.0706 11.2508 10.7454C8.52762 14.3329 5.8104 17.9262 3.08727 21.5077C2.98663 21.638 2.8268 21.7268 2.69064 21.8333C2.58409 21.8215 2.50121 21.8215 2.41833 21.8215Z"
                  fill="#00ACE6"
                />
              </svg>