<svg width="21" height="19" viewBox="0 0 21 19" fill="none" xmlns="http://www.w3.org/2000/svg">
<path id="Vector" d="M20.909 10.5346L18.109 5.68188C18.0536 5.58567 17.9758 5.504 17.882 5.44369C17.7883 5.38338 17.6813 5.3462 17.57 5.33526C17.4597 5.3249 17.3485 5.34019 17.2452 5.37991C17.1419 5.41962 17.0494 5.48267 16.975 5.56403L15.12 7.64377L11.102 0.822227C11.0366 0.723249 10.9472 0.641966 10.8422 0.585711C10.7371 0.529456 10.6195 0.5 10.5 0.5C10.3805 0.5 10.2629 0.529456 10.1579 0.585711C10.0528 0.641966 9.96345 0.723249 9.898 0.822227L5.88 7.64377L4.025 5.56403C3.95204 5.4809 3.85974 5.41663 3.75607 5.37677C3.6524 5.33691 3.54048 5.32266 3.43 5.33526C3.31874 5.3462 3.21174 5.38338 3.11796 5.44369C3.02418 5.504 2.94636 5.58567 2.891 5.68188L0.091 10.5346C0.033213 10.6388 0.00197615 10.7554 0 10.8743V17.8068C0 17.9906 0.0737498 18.1669 0.205025 18.297C0.336301 18.427 0.514348 18.5 0.7 18.5H20.3C20.4857 18.5 20.6637 18.427 20.795 18.297C20.9263 18.1669 21 17.9906 21 17.8068V10.8743C20.998 10.7554 20.9668 10.6388 20.909 10.5346ZM7.203 13.162C7.26759 13.0962 7.34485 13.0439 7.43022 13.0081C7.51558 12.9724 7.60732 12.954 7.7 12.954C7.79268 12.954 7.88442 12.9724 7.96978 13.0081C8.05515 13.0439 8.13241 13.0962 8.197 13.162L8.897 13.8553C9.02738 13.9851 9.10055 14.1608 9.10055 14.344C9.10055 14.5271 9.02738 14.7028 8.897 14.8327C8.76431 14.9616 8.58586 15.0338 8.4 15.0338C8.21414 15.0338 8.03569 14.9616 7.903 14.8327L7.203 14.1395C7.07262 14.0096 6.99944 13.8339 6.99944 13.6507C6.99944 13.4676 7.07262 13.2919 7.203 13.162ZM14.203 11.7755L15.603 10.389C15.7339 10.2585 15.9118 10.1848 16.0975 10.1841C16.2833 10.1835 16.4617 10.2559 16.5935 10.3856C16.7253 10.5152 16.7997 10.6913 16.8004 10.8753C16.801 11.0593 16.7279 11.236 16.597 11.3665L15.197 12.753C15.0643 12.8819 14.8859 12.9541 14.7 12.9541C14.5141 12.9541 14.3357 12.8819 14.203 12.753C14.0726 12.6231 13.9994 12.4474 13.9994 12.2643C13.9994 12.0811 14.0726 11.9054 14.203 11.7755ZM10.5 2.54841L14.147 8.7391L10.5 12.8292L6.853 8.7391L10.5 2.54841Z" fill="url(#paint0_linear_4331_10954)"/>
<defs>
<linearGradient id="paint0_linear_4331_10954" x1="3.07538" y1="3.13604" x2="15.6536" y2="17.8106" gradientUnits="userSpaceOnUse">
<stop offset="0.00558659" stop-color="#D9CB00"/>
<stop offset="1" stop-color="#FF8717"/>
</linearGradient>
</defs>
</svg>
