<svg width="19" height="19" viewBox="0 0 19 19" fill="none" xmlns="http://www.w3.org/2000/svg">
<g id="Group">
<path id="Vector" d="M4.79358 3.865C5.57352 1.96391 7.44289 0.625 9.62498 0.625C11.8071 0.625 13.6764 1.96391 14.4564 3.865H11.5723C11.403 2.94336 10.5956 2.245 9.62498 2.245C8.6544 2.245 7.84692 2.94336 7.67763 3.865H4.79358Z" fill="#00ACE6"/>
<path id="Vector_2" d="M4.5581 4.585C4.48594 4.87613 4.43822 5.17689 4.41724 5.485H8.09759C7.88747 5.23059 7.73971 4.92279 7.67767 4.585H4.5581Z" fill="#5C666C"/>
<path id="Vector_3" d="M11.5723 4.585C11.5103 4.92279 11.3625 5.23059 11.1524 5.485H14.8328C14.8118 5.17689 14.7641 4.87613 14.6919 4.585H11.5723Z" fill="#5C666C"/>
<path id="Vector_4" d="M9.62499 5.485C8.92911 5.485 8.36499 4.92088 8.36499 4.225C8.36499 3.52912 8.92911 2.965 9.62499 2.965C10.3209 2.965 10.885 3.52912 10.885 4.225C10.885 4.92088 10.3209 5.485 9.62499 5.485Z" fill="#5C666C"/>
<path id="Vector_5" d="M4.94501 8.365H14.305C14.305 11.0552 12.4209 13.225 9.62501 13.225C6.8291 13.225 4.94501 11.0552 4.94501 8.365Z" fill="#5C666C"/>
<path id="Vector_6" d="M7.82574 13.638C8.38851 13.8368 8.99411 13.945 9.62497 13.945C10.2558 13.945 10.8614 13.8368 11.4242 13.638C11.3962 14.6076 10.6014 15.385 9.62497 15.385C8.64858 15.385 7.85377 14.6076 7.82574 13.638Z" fill="#5C666C"/>
<path id="Vector_7" d="M9.62503 16.105C8.112 16.105 7.10503 14.8401 7.10503 13.405H5.37048C5.03967 13.405 4.71675 13.4389 4.40503 13.5033V18.625H14.845V13.5033C14.5333 13.4389 14.2104 13.405 13.8796 13.405H12.145C12.145 14.8401 11.1381 16.105 9.62503 16.105Z" fill="#00A8E1"/>
<path id="Vector_8" d="M15.565 18.625H18.1505C18.4126 18.625 18.625 18.4126 18.625 18.1505C18.625 16.1232 17.3538 14.3928 15.565 13.713V18.625Z" fill="#5C666C"/>
<path id="Vector_9" d="M3.685 13.713V18.625H1.09955C0.837454 18.625 0.625 18.4126 0.625 18.1505C0.625 16.1232 1.89621 14.3928 3.685 13.713Z" fill="#5C666C"/>
<path id="Vector_10" d="M3.86502 6.205C3.46738 6.205 3.14502 6.52736 3.14502 6.925C3.14502 7.32264 3.46738 7.645 3.86502 7.645H15.385C15.7827 7.645 16.105 7.32264 16.105 6.925C16.105 6.52736 15.7827 6.205 15.385 6.205H3.86502Z" fill="#5C666C"/>
</g>
</svg>
