<svg width="24" height="24" viewBox="0 0 24 24" fill="none" xmlns="http://www.w3.org/2000/svg">
<path d="M6.79359 5.865C7.57353 3.96391 9.44291 2.625 11.625 2.625C13.8071 2.625 15.6764 3.96391 16.4564 5.865H13.5723C13.4031 4.94336 12.5956 4.245 11.625 4.245C10.6544 4.245 9.84693 4.94336 9.67764 5.865H6.79359Z" fill="#5C666C"/>
<path d="M6.55809 6.585C6.48593 6.87613 6.43821 7.17689 6.41722 7.485H10.0976C9.88746 7.23059 9.7397 6.92279 9.67765 6.585H6.55809Z" fill="#5C666C"/>
<path d="M13.5723 6.585C13.5103 6.92279 13.3625 7.23059 13.1524 7.485H16.8328C16.8118 7.17689 16.7641 6.87613 16.6919 6.585H13.5723Z" fill="#5C666C"/>
<path d="M11.625 7.485C10.9291 7.485 10.365 6.92088 10.365 6.225C10.365 5.52912 10.9291 4.965 11.625 4.965C12.3209 4.965 12.885 5.52912 12.885 6.225C12.885 6.92088 12.3209 7.485 11.625 7.485Z" fill="#5C666C"/>
<path d="M6.94501 10.365H16.305C16.305 13.0552 14.4209 15.225 11.625 15.225C8.8291 15.225 6.94501 13.0552 6.94501 10.365Z" fill="#5C666C"/>
<path d="M9.82578 15.638C10.3885 15.8368 10.9941 15.945 11.625 15.945C12.2559 15.945 12.8615 15.8368 13.4242 15.638C13.3962 16.6076 12.6014 17.385 11.625 17.385C10.6486 17.385 9.8538 16.6076 9.82578 15.638Z" fill="#5C666C"/>
<path d="M11.625 18.105C10.112 18.105 9.105 16.8401 9.105 15.405H7.37045C7.03964 15.405 6.71672 15.4389 6.405 15.5033V20.625H16.845V15.5033C16.5333 15.4389 16.2104 15.405 15.8795 15.405H14.145C14.145 16.8401 13.138 18.105 11.625 18.105Z" fill="#5C666C"/>
<path d="M17.565 20.625H20.1505C20.4126 20.625 20.625 20.4126 20.625 20.1505C20.625 18.1232 19.3538 16.3928 17.565 15.713V20.625Z" fill="#5C666C"/>
<path d="M5.685 15.713V20.625H3.09955C2.83745 20.625 2.625 20.4126 2.625 20.1505C2.625 18.1232 3.89621 16.3928 5.685 15.713Z" fill="#5C666C"/>
<path d="M5.865 8.205C5.46737 8.205 5.145 8.52736 5.145 8.925C5.145 9.32264 5.46737 9.645 5.865 9.645H17.385C17.7826 9.645 18.105 9.32264 18.105 8.925C18.105 8.52736 17.7826 8.205 17.385 8.205H5.865Z" fill="#5C666C"/>
</svg>
