      <svg
              xmlns="http://www.w3.org/2000/svg"
              width="20"
              height="20"
              viewBox="0 0 14 15"
              fill="none"
            >
              <g clip-path="url(#clip0_4522_10599)">
                <path
                  d="M7 14.5C10.866 14.5 14 11.366 14 7.5C14 3.63401 10.866 0.5 7 0.5C3.13401 0.5 0 3.63401 0 7.5C0 11.366 3.13401 14.5 7 14.5Z"
                  fill="#F0D64D"
                />
                <path
                  opacity="0.2"
                  d="M9.77893 1.07422L0.379791 9.77937C0.580792 10.3631 0.858483 10.9176 1.20557 11.4282L11.3594 2.02195C10.8767 1.63775 10.3452 1.31907 9.77893 1.07422ZM11.8346 2.43812L1.58292 11.9332C1.73112 12.1143 1.88789 12.2874 2.05323 12.4528L12.3164 2.94672C12.1644 2.76916 12.0036 2.59932 11.8346 2.43785V2.43812ZM12.8105 3.59531L2.66272 12.9945C3.116 13.3528 3.61197 13.6536 4.13928 13.89L13.5898 5.13559C13.3949 4.59186 13.1331 4.07448 12.8105 3.59531Z"
                  fill="white"
                />
                <path
                  d="M11.1423 11.6438C13.4308 9.35525 13.4308 5.64475 11.1423 3.35618C8.85371 1.06761 5.1432 1.06761 2.85464 3.35618C0.566067 5.64475 0.566067 9.35525 2.85464 11.6438C5.1432 13.9324 8.85371 13.9324 11.1423 11.6438Z"
                  fill="#FFFA89"
                />
                <path
                  d="M10.9596 11.4611C13.1473 9.27346 13.1473 5.72654 10.9596 3.53887C8.77193 1.35119 5.22501 1.35119 3.03734 3.53887C0.849662 5.72654 0.849662 9.27346 3.03734 11.4611C5.22501 13.6488 8.77193 13.6488 10.9596 11.4611Z"
                  fill="#DFBF4F"
                />
                <path
                  opacity="0.18"
                  d="M8.62941 2.13867L1.53125 8.71375C1.66836 9.33359 1.91037 9.92544 2.24684 10.4638L10.3193 2.9866C9.80829 2.60993 9.23681 2.32318 8.62941 2.13867ZM10.8065 3.3902L2.61133 10.9808C2.75661 11.164 2.91314 11.338 3.08 11.5017L11.29 3.89742C11.1395 3.71844 10.9781 3.54903 10.8065 3.3902ZM11.7693 4.55969L3.70289 12.0297C4.1826 12.3793 4.71502 12.6502 5.28008 12.832L12.4482 6.19348C12.3105 5.61617 12.0813 5.06461 11.7693 4.55969Z"
                  fill="#C8C8C8"
                />
                <path
                  d="M11.5937 2.90624C10.3677 1.72554 8.72735 1.07306 7.02532 1.08908C5.32329 1.10511 3.6955 1.78835 2.49193 2.99193C1.28835 4.1955 0.605107 5.82329 0.589083 7.52532C0.573059 9.22735 1.22554 10.8677 2.40624 12.0937C3.63226 13.2744 5.27262 13.9269 6.97465 13.9109C8.67668 13.8949 10.3045 13.2116 11.508 12.008C12.7116 10.8045 13.3949 9.17668 13.4109 7.47465C13.4269 5.77262 12.7744 4.13226 11.5937 2.90624ZM6.99999 13.9154C3.46252 13.9154 0.584595 11.0374 0.584595 7.49999C0.584595 3.96252 3.46252 1.08459 6.99999 1.08459C10.5374 1.08459 13.4154 3.96252 13.4154 7.49999C13.4154 11.0374 10.5374 13.9154 6.99999 13.9154Z"
                  fill="#F2C341"
                />
                <path
                  d="M6.48047 10.8586V10.2497C6.41685 10.2376 6.35432 10.2233 6.29289 10.2067C6.07441 10.1476 5.86556 10.0573 5.67273 9.93878C5.4756 9.81579 5.29543 9.66751 5.1368 9.49773L5.00391 9.35745L5.77117 8.42776L5.93988 8.63175C6.07119 8.79645 6.23573 8.93164 6.42277 9.02851C6.59831 9.11472 6.79159 9.15864 6.98715 9.15675C7.26359 9.15675 7.46566 9.1078 7.58734 9.01128C7.69535 8.92597 7.74785 8.79062 7.74785 8.59757V8.59374C7.74785 8.47917 7.72434 8.39222 7.6784 8.33534C7.6219 8.26675 7.54821 8.21438 7.46484 8.18358C7.32159 8.13144 7.17399 8.0921 7.02379 8.06601H7.01859C7.00391 8.06456 6.98937 8.06191 6.97512 8.05808L6.95078 8.05343L6.91195 8.04605C6.64387 8 6.38009 7.93168 6.12336 7.84179C5.89094 7.75511 5.69133 7.59788 5.52945 7.37421C5.36758 7.15054 5.28336 6.83472 5.28336 6.44206V6.43851C5.28336 6.06472 5.35445 5.74589 5.49445 5.49105C5.64018 5.22613 5.8688 5.01634 6.14523 4.89386C6.25344 4.84483 6.36605 4.8062 6.48156 4.77847V4.14136H7.62754V4.74839L7.68223 4.75905C7.85866 4.79692 8.03074 4.85281 8.19574 4.92585C8.36838 5.00255 8.53406 5.09404 8.69094 5.19929L8.88043 5.32562L8.19492 6.26788L8.01992 6.14948C7.88012 6.05276 7.72849 5.97438 7.56875 5.91624C7.43616 5.86902 7.2966 5.84434 7.15586 5.84323C6.90402 5.84323 6.71836 5.88999 6.60898 5.98241C6.50809 6.06444 6.45914 6.19624 6.45914 6.38163V6.38519C6.45914 6.50249 6.48484 6.59081 6.53543 6.64741C6.60061 6.71946 6.68345 6.77328 6.77578 6.80355C6.94711 6.85965 7.12148 6.90602 7.29805 6.94245L7.33086 6.95065L7.35219 6.9553L7.38992 6.96323L7.41727 6.96925H7.42246C7.67446 7.02097 7.92002 7.1002 8.15473 7.2055C8.3823 7.31565 8.57351 7.48874 8.7057 7.70425C8.8509 7.9312 8.92445 8.23499 8.92445 8.60659V8.61343C8.92445 8.97792 8.85008 9.28937 8.70324 9.53901C8.5523 9.79577 8.32563 9.98964 8.02895 10.1157C7.90001 10.1694 7.76598 10.2099 7.62891 10.2366V10.8573L6.48047 10.8586Z"
                  fill="#FFFA89"
                />
                <path
                  d="M6.35058 9.99565C6.1523 9.94208 5.96277 9.86021 5.78784 9.75257C5.60666 9.63996 5.44116 9.50388 5.29565 9.34788L5.77144 8.7712C5.92209 8.95966 6.11088 9.11416 6.32542 9.22456C6.53115 9.32593 6.7578 9.37762 6.98714 9.3755C7.31526 9.3755 7.56063 9.3117 7.72323 9.18409C7.88584 9.05649 7.96696 8.86144 7.96659 8.59894V8.59374C7.96659 8.42731 7.92722 8.29533 7.84847 8.1978C7.76763 8.09922 7.66216 8.02375 7.54276 7.97905C7.38714 7.92199 7.22672 7.87898 7.06343 7.85054C7.05726 7.8484 7.05081 7.8472 7.04429 7.84698C7.03778 7.84685 7.03133 7.84574 7.02515 7.8437L6.98878 7.83659L6.95214 7.82976C6.64224 7.77179 6.39104 7.70689 6.19854 7.63507C6.00604 7.56325 5.84198 7.433 5.70636 7.24433C5.56982 7.05565 5.50155 6.78769 5.50155 6.44042V6.43687C5.50155 6.0989 5.56289 5.81817 5.68558 5.59468C5.80875 5.37089 6.00219 5.19389 6.23601 5.09101C6.48046 4.97871 6.78671 4.92257 7.15476 4.92257C7.31649 4.92249 7.47779 4.93935 7.63601 4.97288C7.7977 5.00755 7.95539 5.05877 8.10659 5.12573C8.26763 5.19736 8.42215 5.28281 8.56843 5.38112L8.14105 5.96874C7.98553 5.86127 7.81679 5.77433 7.63901 5.71007C7.48342 5.65474 7.31962 5.62599 7.15448 5.62503C6.84878 5.62503 6.61955 5.6881 6.46679 5.81425C6.31403 5.94039 6.23765 6.1297 6.23765 6.38218V6.38573C6.23765 6.55946 6.28167 6.69545 6.36972 6.7937C6.45963 6.89355 6.57392 6.96835 6.7014 7.01081C6.8808 7.06963 7.06338 7.11829 7.24827 7.15655L7.27561 7.16366C7.28491 7.16585 7.2953 7.16831 7.30679 7.1705L7.33987 7.17761L7.37296 7.18444C7.60899 7.23248 7.83899 7.30648 8.05874 7.40511C8.24907 7.49757 8.4088 7.64279 8.51893 7.82347C8.6418 8.0156 8.70314 8.27728 8.70296 8.60851V8.61534C8.70296 8.94183 8.63916 9.21335 8.51155 9.42991C8.38395 9.64647 8.19345 9.80862 7.94007 9.91636C7.6865 10.0237 7.36877 10.0775 6.98687 10.0777C6.77207 10.0787 6.55809 10.0511 6.35058 9.99565ZM6.69921 4.36011H7.40796V5.15308H6.69921V4.36011ZM6.69921 9.80288H7.40796V10.6399H6.69921V9.80288Z"
                  fill="#F0D64D"
                />
              </g>
              <defs>
                <clipPath id="clip0_4522_10599">
                  <rect
                    width="14"
                    height="14"
                    fill="white"
                    transform="translate(0 0.5)"
                  />
                </clipPath>
              </defs>
            </svg>