<svg width="25" height="24" viewBox="0 0 25 24" fill="none" xmlns="http://www.w3.org/2000/svg">
<path d="M21.7938 12.9313L19.2938 8.55625C19.2443 8.46951 19.1748 8.39588 19.0911 8.34151C19.0074 8.28714 18.9118 8.25362 18.8125 8.24375C18.714 8.23441 18.6147 8.2482 18.5225 8.284C18.4302 8.31981 18.3476 8.37665 18.2812 8.45L16.625 10.325L13.0375 4.175C12.9791 4.08577 12.8993 4.01248 12.8055 3.96177C12.7117 3.91105 12.6067 3.88449 12.5 3.88449C12.3933 3.88449 12.2883 3.91105 12.1945 3.96177C12.1007 4.01248 12.0209 4.08577 11.9625 4.175L8.375 10.325L6.71875 8.45C6.65361 8.37506 6.5712 8.31711 6.47863 8.28118C6.38607 8.24524 6.28614 8.23239 6.1875 8.24375C6.08816 8.25362 5.99262 8.28714 5.90889 8.34151C5.82516 8.39588 5.75568 8.46951 5.70625 8.55625L3.20625 12.9313C3.15465 13.0252 3.12676 13.1303 3.125 13.2375V19.4875C3.125 19.6533 3.19085 19.8122 3.30806 19.9294C3.42527 20.0467 3.58424 20.1125 3.75 20.1125H21.25C21.4158 20.1125 21.5747 20.0467 21.6919 19.9294C21.8092 19.8122 21.875 19.6533 21.875 19.4875V13.2375C21.8732 13.1303 21.8453 13.0252 21.7938 12.9313ZM9.55625 15.3C9.61392 15.2407 9.6829 15.1935 9.75912 15.1613C9.83534 15.1291 9.91725 15.1125 10 15.1125C10.0827 15.1125 10.1647 15.1291 10.2409 15.1613C10.3171 15.1935 10.3861 15.2407 10.4437 15.3L11.0687 15.925C11.1852 16.0421 11.2505 16.2005 11.2505 16.3656C11.2505 16.5307 11.1852 16.6891 11.0687 16.8063C10.9503 16.9224 10.7909 16.9875 10.625 16.9875C10.4591 16.9875 10.2997 16.9224 10.1813 16.8063L9.55625 16.1813C9.43984 16.0641 9.3745 15.9057 9.3745 15.7406C9.3745 15.5755 9.43984 15.4171 9.55625 15.3ZM15.8063 14.05L17.0563 12.8C17.1731 12.6823 17.3319 12.6159 17.4978 12.6153C17.6636 12.6147 17.8229 12.68 17.9406 12.7969C18.0583 12.9137 18.1248 13.0726 18.1253 13.2384C18.1259 13.4043 18.0606 13.5636 17.9437 13.6813L16.6937 14.9313C16.5753 15.0474 16.4159 15.1125 16.25 15.1125C16.0841 15.1125 15.9247 15.0474 15.8063 14.9313C15.6898 14.8141 15.6245 14.6557 15.6245 14.4906C15.6245 14.3255 15.6898 14.1671 15.8063 14.05ZM12.5 5.73125L15.7562 11.3125L12.5 15L9.24375 11.3125L12.5 5.73125Z" fill="#5C666C"/>
</svg>
