<svg width="21" height="20" viewBox="0 0 21 20" fill="none" xmlns="http://www.w3.org/2000/svg">
<g id="free-icon-mountain-10982136 1">
<path id="Vector" d="M19.7938 10.9313L17.2938 6.55625C17.2443 6.46951 17.1748 6.39588 17.0911 6.34151C17.0074 6.28714 16.9118 6.25362 16.8125 6.24375C16.714 6.23441 16.6147 6.2482 16.5225 6.284C16.4302 6.31981 16.3476 6.37665 16.2812 6.45L14.625 8.325L11.0375 2.175C10.9791 2.08577 10.8993 2.01248 10.8055 1.96177C10.7117 1.91105 10.6067 1.88449 10.5 1.88449C10.3933 1.88449 10.2883 1.91105 10.1945 1.96177C10.1007 2.01248 10.0209 2.08577 9.9625 2.175L6.375 8.325L4.71875 6.45C4.65361 6.37506 4.5712 6.31711 4.47863 6.28118C4.38607 6.24524 4.28614 6.23239 4.1875 6.24375C4.08816 6.25362 3.99262 6.28714 3.90889 6.34151C3.82516 6.39588 3.75568 6.46951 3.70625 6.55625L1.20625 10.9313C1.15465 11.0252 1.12676 11.1303 1.125 11.2375V17.4875C1.125 17.6533 1.19085 17.8122 1.30806 17.9294C1.42527 18.0467 1.58424 18.1125 1.75 18.1125H19.25C19.4158 18.1125 19.5747 18.0467 19.6919 17.9294C19.8092 17.8122 19.875 17.6533 19.875 17.4875V11.2375C19.8732 11.1303 19.8453 11.0252 19.7938 10.9313ZM7.55625 13.3C7.61392 13.2407 7.6829 13.1935 7.75912 13.1613C7.83534 13.1291 7.91725 13.1125 8 13.1125C8.08275 13.1125 8.16466 13.1291 8.24088 13.1613C8.3171 13.1935 8.38608 13.2407 8.44375 13.3L9.06875 13.925C9.18516 14.0421 9.25049 14.2005 9.25049 14.3656C9.25049 14.5307 9.18516 14.6891 9.06875 14.8063C8.95027 14.9224 8.79095 14.9875 8.625 14.9875C8.45905 14.9875 8.29973 14.9224 8.18125 14.8063L7.55625 14.1813C7.43984 14.0641 7.3745 13.9057 7.3745 13.7406C7.3745 13.5755 7.43984 13.4171 7.55625 13.3ZM13.8063 12.05L15.0563 10.8C15.1731 10.6823 15.3319 10.6159 15.4978 10.6153C15.6636 10.6147 15.8229 10.68 15.9406 10.7969C16.0583 10.9137 16.1248 11.0726 16.1253 11.2384C16.1259 11.4043 16.0606 11.5636 15.9437 11.6813L14.6937 12.9313C14.5753 13.0474 14.4159 13.1125 14.25 13.1125C14.0841 13.1125 13.9247 13.0474 13.8063 12.9313C13.6898 12.8141 13.6245 12.6557 13.6245 12.4906C13.6245 12.3255 13.6898 12.1671 13.8063 12.05ZM10.5 3.73125L13.7562 9.3125L10.5 13L7.24375 9.3125L10.5 3.73125Z" fill="#00ACE6"/>
</g>
</svg>
